<?xml version="1.0" encoding="UTF-8"?>
<svg id="Layer_1" xmlns="http://www.w3.org/2000/svg" version="1.1" viewBox="0 0 224 150">
  <!-- Generator: Adobe Illustrator 29.6.0, SVG Export Plug-In . SVG Version: 2.1.1 Build 207)  -->
  <defs>
    <style>
      .st0 {
        font-family: MyriadPro-Regular, 'Myriad Pro';
        font-size: 9.78px;
        stroke: #0f298f;
        stroke-width: 0px;
      }

      .st0, .st1, .st2, .st3 {
        fill: #0f298f;
      }

      .st4 {
        fill: #80bc00;
      }

      .st2 {
        stroke-width: 0px;
      }

      .st2, .st3 {
        stroke: #0033a1;
      }
    </style>
  </defs>
  <g>
    <g>
      <g>
        <path class="st1" d="M61.69,62.63c-.14-1.07-.34-2.13-.61-3.16-3.3-12.52-13.59-21.16-25.73-22.03-1.98-.14-3.91.25-5.86.58,1.5-.15,2.77-.06,4.26.11,3.84.42,6.77,1.62,10.25,3.36,1.71.85,3.34,1.88,4.83,3.12,5.74,4.77,10.03,12.68,9.5,20.55-.15,2.26-.65,4.8-1.52,6.89-3.85,9.3-13.12,16.19-23,15.34-4.03-.35-7.74-1.89-11.21-4.04-.49-.3-1.65-1.19-1.66-1.18,5.79-6.9,19.27-21.71,21.74-25.34.65-.96,1.57-1.92,1.6-3.16.09-4.34-5-7.97-8.73-9.45-6.34-2.51-10.27-2.14-16.47-.21v.02c6.39-1.16,13.27.9,17.84,5.72,1.86,1.96,2.71,3.84,1.4,6.01-1.3,1.97-12.59,14.65-23.31,26.75-.22.26,5.6,4.32,6.01,4.57,2.49,1.5,5.12,2.67,7.89,3.49,16.68,4.92,35.21-8.94,32.77-27.94Z"/>
        <path class="st1" d="M27.52,56.73c-4.75-5.21-12.39-6.59-17.52-1.18l-.1.1c-4.19,4.43-4.38,12.89,1.77,22.33,5.22-5.51,10.25-11.02,15.47-16.92,1.68-1.78,1.68-2.96.37-4.33ZM22.16,61.41c-2.97,3.36-5.83,6.5-8.8,9.63-3.5-5.38-3.39-10.19-1.01-12.71l.05-.06c2.92-3.08,7.27-2.29,9.97.68.75.78.74,1.45-.21,2.46Z"/>
      </g>
      <g>
        <g>
          <path class="st4" d="M86.76,44.25c1.52-.32,3.93-.56,6.37-.56,3.49,0,5.74.6,7.42,1.96,1.4,1.04,2.25,2.65,2.25,4.77,0,2.61-1.72,4.89-4.57,5.94v.08c2.57.64,5.57,2.77,5.57,6.78,0,2.33-.92,4.09-2.29,5.41-1.88,1.72-4.93,2.53-9.34,2.53-2.41,0-4.25-.16-5.41-.32v-26.59ZM90.25,55.32h3.17c3.69,0,5.85-1.93,5.85-4.53,0-3.17-2.41-4.41-5.94-4.41-1.6,0-2.53.12-3.09.24v8.7ZM90.25,68.27c.68.12,1.68.16,2.93.16,3.61,0,6.94-1.32,6.94-5.25,0-3.69-3.17-5.21-6.98-5.21h-2.89v10.31Z"/>
          <path class="st4" d="M108.33,43.89h14.56v2.93h-11.07v8.98h10.22v2.89h-10.22v12.23h-3.49v-27.03Z"/>
          <path class="st4" d="M138.45,66.27c0,1.69.08,3.33.32,4.65h-3.21l-.28-2.45h-.12c-1.08,1.52-3.17,2.89-5.93,2.89-3.93,0-5.93-2.77-5.93-5.57,0-4.69,4.17-7.26,11.67-7.22v-.4c0-1.6-.44-4.49-4.41-4.49-1.8,0-3.69.56-5.05,1.44l-.8-2.33c1.6-1.04,3.93-1.72,6.38-1.72,5.93,0,7.38,4.05,7.38,7.94v7.26ZM135.04,61.01c-3.85-.08-8.22.6-8.22,4.37,0,2.29,1.52,3.37,3.33,3.37,2.53,0,4.13-1.6,4.69-3.25.12-.36.2-.76.2-1.12v-3.37Z"/>
          <path class="st4" d="M156.23,70.2c-.92.48-2.97,1.16-5.57,1.16-5.85,0-9.66-4.01-9.66-9.94s4.09-10.3,10.43-10.3c2.09,0,3.93.52,4.89,1l-.8,2.73c-.84-.48-2.16-.92-4.09-.92-4.45,0-6.86,3.29-6.86,7.34,0,4.49,2.89,7.26,6.74,7.26,2,0,3.33-.52,4.33-.96l.6,2.65Z"/>
          <path class="st4" d="M164.33,46.86v4.65h5.05v2.69h-5.05v10.47c0,2.4.68,3.77,2.65,3.77.96,0,1.52-.08,2.05-.24l.16,2.65c-.68.28-1.77.52-3.13.52-1.64,0-2.97-.56-3.81-1.52-1-1.04-1.36-2.77-1.36-5.05v-10.59h-3.01v-2.69h3.01v-3.57l3.45-1.08Z"/>
          <path class="st4" d="M189.55,61.05c0,7.18-4.97,10.3-9.66,10.3-5.25,0-9.3-3.85-9.3-9.98,0-6.5,4.25-10.31,9.62-10.31s9.34,4.05,9.34,9.99ZM174.15,61.25c0,4.25,2.45,7.46,5.89,7.46s5.89-3.17,5.89-7.54c0-3.29-1.64-7.46-5.81-7.46s-5.97,3.85-5.97,7.54Z"/>
          <path class="st4" d="M192.25,57.56c0-2.29-.04-4.25-.16-6.05h3.09l.12,3.81h.16c.88-2.61,3.01-4.25,5.37-4.25.4,0,.68.04,1,.12v3.33c-.36-.08-.72-.12-1.2-.12-2.48,0-4.25,1.88-4.73,4.53-.08.48-.16,1.04-.16,1.64v10.35h-3.49v-13.35Z"/>
          <path class="st4" d="M207.16,51.51l4.25,11.47c.44,1.28.92,2.81,1.24,3.97h.08c.36-1.16.76-2.65,1.24-4.05l3.85-11.39h3.73l-5.29,13.83c-2.53,6.66-4.25,10.07-6.66,12.15-1.72,1.52-3.45,2.12-4.33,2.28l-.88-2.97c.88-.28,2.04-.84,3.09-1.72.96-.76,2.17-2.13,2.97-3.93.16-.36.28-.64.28-.84s-.08-.48-.24-.92l-7.18-17.89h3.85Z"/>
        </g>
        <path class="st4" d="M77.12,71.41c-3.25,0-5.78-.91-7.58-2.75-1.8-1.83-2.7-4.42-2.7-7.8s.87-5.96,2.61-7.92c1.75-1.96,4.03-2.95,6.84-2.95,1.27,0,2.39.18,3.37.54.98.36,1.83.93,2.56,1.71.73.78,1.29,1.73,1.68,2.85.39,1.12.58,2.5.58,4.12v1.86h-14.14c0,2.38.59,4.2,1.79,5.45,1.2,1.25,2.85,1.88,4.95,1.88.76,0,1.5-.09,2.23-.26.72-.17,1.38-.39,1.97-.66.62-.28,1.15-.55,1.57-.8.43-.26.78-.52,1.06-.74h.2v3.73c-.4.16-.9.36-1.5.59-.6.24-1.13.42-1.61.55-.67.18-1.28.33-1.82.42-.54.1-1.22.15-2.06.15ZM81.16,58.46c-.02-.92-.14-1.71-.33-2.37-.19-.66-.47-1.22-.84-1.68-.4-.51-.92-.9-1.55-1.16-.63-.27-1.41-.4-2.33-.4s-1.69.13-2.33.41c-.64.27-1.23.67-1.75,1.19-.51.53-.91,1.12-1.18,1.77-.27.65-.44,1.4-.51,2.26h10.82Z"/>
      </g>
    </g>
    <g>
      <path class="st2" d="M214.98,78.29c.38-.08.93-.12,1.45-.12.81,0,1.33.15,1.69.48.29.26.46.66.46,1.11,0,.77-.49,1.29-1.1,1.49v.03c.45.16.72.57.86,1.18.19.82.33,1.38.45,1.61h-.78c-.1-.17-.23-.67-.39-1.4-.17-.81-.49-1.11-1.17-1.14h-.71v2.54h-.75v-5.77ZM215.73,80.96h.77c.81,0,1.32-.44,1.32-1.11,0-.76-.55-1.09-1.35-1.09-.36,0-.62.03-.75.07v2.14Z"/>
      <path class="st3" d="M216.64,76.2c-2.72,0-4.92,2.2-4.92,4.92s2.2,4.92,4.92,4.92,4.92-2.2,4.92-4.92-2.2-4.92-4.92-4.92ZM216.64,85.1c-2.2,0-3.99-1.78-3.99-3.98s1.78-3.98,3.99-3.98,3.98,1.78,3.98,3.98-1.78,3.98-3.98,3.98Z"/>
    </g>
  </g>
  <text class="st0" transform="translate(68.17 83.43)"><tspan x="0" y="0">e-Business Software Factory S.A.S.</tspan></text>
</svg>