<svg version="1.1" id="Layer_1" xmlns="http://www.w3.org/2000/svg" xmlns:xlink="http://www.w3.org/1999/xlink" x="0px" y="0px"
	 width="100%" viewBox="0 0 800 219" enable-background="new 0 0 800 219" xml:space="preserve">
<path fill="#000000" opacity="1.000000" stroke="none" 
	d="
M517.000000,220.000000 
	C344.666687,220.000000 172.833374,220.000000 1.000046,220.000000 
	C1.000031,147.000031 1.000031,74.000061 1.000015,1.000066 
	C267.666595,1.000044 534.333191,1.000044 800.999878,1.000022 
	C800.999878,73.999931 800.999878,146.999863 800.999939,219.999893 
	C706.500000,220.000000 612.000000,220.000000 517.000000,220.000000 
M396.913788,94.013550 
	C407.070862,94.009026 417.228271,94.043968 427.384644,93.956528 
	C428.871124,93.943726 430.352631,93.348228 431.967377,92.110855 
	C431.967377,89.185829 431.967377,86.260803 431.967377,82.933823 
	C419.586304,82.933823 407.823486,82.933823 396.009888,82.010078 
	C396.027313,71.694756 396.044708,61.379433 396.990326,51.012486 
	C409.547821,51.012486 422.105347,51.012486 434.839203,51.012486 
	C434.839203,47.237724 434.839203,44.112709 434.580536,40.155457 
	C418.058777,40.104740 401.537018,40.043320 385.015259,40.045078 
	C384.397064,40.045147 383.778931,40.659504 383.031525,41.918503 
	C383.031525,73.490707 383.031525,105.062904 383.031525,136.836365 
	C387.427032,136.836365 391.224579,136.836365 395.813385,136.509018 
	C395.902679,122.329605 395.991974,108.150192 395.973633,93.974258 
	C395.973633,93.974258 395.971527,94.081985 396.913788,94.013550 
M683.912231,136.968185 
	C687.507874,136.968185 691.103516,136.968185 695.000000,136.968185 
	C695.000000,133.506546 694.933594,130.695572 695.011597,127.888611 
	C695.324280,116.638161 695.145386,105.339539 696.175903,94.153412 
	C697.175354,83.305794 705.947083,77.038597 716.999939,78.225677 
	C716.999939,76.546516 716.999146,74.892006 717.000061,73.237503 
	C717.004456,65.301018 714.711548,63.571651 707.509033,67.394730 
	C702.559753,70.021797 698.369629,74.079147 693.611267,77.669975 
	C693.332092,75.123413 692.956665,71.698418 692.596619,68.413567 
	C688.924011,68.413567 685.546692,68.413567 682.191040,68.413567 
	C682.191040,71.982262 682.191040,75.137642 682.109802,79.179359 
	C682.071350,97.271851 682.014893,115.364365 682.037476,133.456757 
	C682.038879,134.585052 682.660034,135.712555 683.912231,136.968185 
M570.036926,117.775162 
	C570.357178,119.368408 570.831665,120.948151 570.972534,122.557114 
	C571.845886,132.532364 577.824097,138.479568 589.205750,138.925995 
	C599.733154,139.338898 600.565735,138.215103 599.871826,127.904457 
	C599.854919,127.652527 599.520569,127.421951 599.338501,127.186829 
	C588.895508,129.671310 582.667603,127.426170 582.973389,115.091858 
	C583.126221,108.930435 583.000000,102.762093 583.000000,96.596886 
	C583.000000,90.498611 583.000000,84.400345 583.000000,77.919754 
	C589.284058,77.919754 594.889343,77.919754 600.682678,77.919754 
	C600.682678,74.465515 600.682678,71.420334 600.682678,67.796814 
	C594.650757,67.796814 588.920044,67.796814 582.860535,67.796814 
	C582.860535,62.262516 582.860535,57.307934 582.860535,51.441277 
	C579.688782,52.331333 577.130798,53.322342 574.483215,53.726273 
	C570.770874,54.292667 569.537903,56.184155 569.944031,59.801182 
	C570.233215,62.376579 570.000183,65.010605 570.000183,68.179886 
	C566.347534,68.179886 563.281799,68.179886 560.271362,68.179886 
	C560.271362,71.694183 560.271362,74.628708 560.271362,78.049637 
	C563.661682,78.049637 566.788086,78.049637 569.986267,78.975601 
	C570.044495,91.633820 570.102661,104.292030 570.036926,117.775162 
M103.959000,208.878677 
	C116.556267,211.085007 129.044144,211.728683 141.802460,209.159027 
	C164.954346,204.496033 183.943497,192.948181 198.406723,174.736160 
	C215.239182,153.540848 220.860672,128.732925 215.691132,102.365730 
	C210.813187,77.485855 198.830002,56.128819 178.550995,40.063984 
	C158.090363,23.855289 135.138168,15.688334 108.744987,18.553308 
	C109.974518,19.276281 111.290314,19.962288 112.632652,20.018898 
	C130.447800,20.770178 146.264526,27.594725 161.094299,36.689060 
	C178.861404,47.584721 191.098251,63.409649 198.763016,82.676140 
	C205.749603,100.237900 206.791870,118.228401 200.787888,136.273270 
	C194.990219,153.698135 184.516556,168.102005 170.043076,179.223083 
	C156.402786,189.703934 140.949036,196.008499 123.357544,196.020065 
	C112.301521,196.027344 101.695717,193.736725 91.729164,189.184845 
	C84.790024,186.015656 78.306389,181.849106 70.761353,177.650711 
	C83.246750,163.458435 94.891548,150.400345 106.334946,137.168076 
	C120.250107,121.077644 134.195648,105.005661 147.739166,88.604591 
	C155.824936,78.812828 157.356003,70.915665 148.032898,59.870594 
	C143.172058,54.111938 136.939102,48.883739 130.287613,45.396145 
	C116.810196,38.329475 102.487381,33.214378 86.710335,36.011818 
	C80.005348,37.200684 73.328888,38.550411 66.273911,39.896797 
	C73.542358,40.288960 80.251297,40.328480 86.881203,41.072357 
	C103.253922,42.909359 117.025223,50.397629 128.379654,62.029171 
	C137.254227,71.120338 137.144455,79.539223 129.290100,88.242195 
	C121.466217,96.911430 113.754959,105.683060 106.048103,114.457031 
	C91.890305,130.575180 77.773552,146.729385 63.636330,162.865616 
	C59.012882,168.142838 54.379005,173.410919 49.622452,178.828339 
	C65.791252,192.791031 83.041405,203.273804 103.959000,208.878677 
M312.477783,40.995579 
	C307.745544,40.498402 305.832123,42.126995 305.879639,47.361290 
	C306.134949,75.495193 306.000336,103.632637 306.000366,131.768860 
	C306.000366,133.385559 306.000366,135.002274 306.000366,136.779831 
	C308.014862,136.904190 309.495819,136.898331 310.947815,137.100449 
	C323.619568,138.864487 336.203918,138.785553 348.532104,134.970978 
	C365.429504,129.742599 373.151184,109.031265 361.962494,95.515846 
	C358.432465,91.251732 353.293793,88.319283 348.837341,84.733917 
	C349.781189,84.236534 351.250519,83.562492 352.619995,82.725159 
	C367.174347,73.826012 365.909698,54.110336 354.807739,46.536701 
	C342.135498,37.891888 327.690582,39.170818 312.477783,40.995579 
M26.065937,89.772636 
	C14.231041,116.346565 24.151152,139.371582 37.709965,162.984955 
	C42.513844,157.746216 46.688484,153.196671 50.859882,148.644135 
	C65.144577,133.054291 79.630188,117.641182 93.594872,101.769737 
	C98.061447,96.693291 101.125320,93.800125 94.145683,86.423546 
	C92.144554,84.308617 90.129036,82.140778 87.818886,80.396057 
	C76.675529,71.980171 64.393456,67.529465 50.348358,71.126236 
	C39.987926,73.779411 32.356884,80.397247 26.065937,89.772636 
M241.422714,125.888458 
	C246.395599,129.579712 250.865356,134.652802 256.442841,136.683578 
	C269.295593,141.363312 282.257294,139.283249 294.588959,133.654877 
	C295.648041,133.171494 296.782928,131.635986 296.884003,130.500336 
	C297.186462,127.102676 296.992737,123.660858 296.992737,119.467598 
	C295.216034,120.298805 294.199280,120.664627 293.294769,121.214989 
	C285.844208,125.748497 277.916046,128.289612 269.048920,128.052826 
	C255.192047,127.682793 245.815033,116.011559 248.809525,101.758652 
	C265.062408,101.758652 281.441895,101.758652 298.626923,101.758652 
	C297.875763,95.075905 297.968231,88.831429 296.357300,83.062622 
	C293.168213,71.642357 286.077911,64.558624 273.420227,62.715076 
	C262.096436,61.065804 252.702789,64.243622 245.137085,71.655716 
	C232.520584,84.016075 231.187729,110.530197 241.422714,125.888458 
M664.011169,128.474472 
	C666.610657,123.442902 670.143860,118.669540 671.621155,113.327599 
	C675.011780,101.066917 673.189758,89.171051 665.800537,78.593193 
	C658.737061,68.481850 642.642395,63.366890 628.994080,67.528954 
	C619.346008,70.471130 612.595154,76.823738 608.488098,85.989891 
	C604.812805,94.192833 604.712585,102.631683 605.838684,111.485504 
	C607.066895,121.142242 616.771118,134.140411 625.995483,136.959625 
	C640.006775,141.241913 652.479553,138.614517 664.011169,128.474472 
M443.827271,79.375687 
	C444.807465,79.478371 445.997955,79.993362 446.734283,79.617844 
	C452.133331,76.864326 457.765381,75.887314 463.844635,75.893585 
	C472.892822,75.902931 478.754150,82.548645 477.474121,92.751663 
	C476.885651,92.826424 476.248047,92.973061 475.609192,92.978729 
	C466.018890,93.063904 456.656921,94.034790 448.076660,98.942383 
	C438.000427,104.705597 433.553741,115.996178 437.589691,126.098267 
	C441.051208,134.762466 451.883209,141.886032 463.171844,137.950195 
	C468.702240,136.022003 473.858887,133.021881 479.050079,130.570450 
	C479.380432,131.943100 479.944611,134.287231 480.509888,136.635849 
	C483.938721,136.635849 487.328247,136.635849 489.993011,136.635849 
	C489.993011,119.882767 490.572662,103.470253 489.753571,87.127838 
	C489.330719,78.691139 484.823334,71.267998 476.180267,68.213745 
	C464.069061,63.933941 452.461334,66.211037 441.310638,72.116791 
	C442.035797,74.503616 442.690948,76.660065 443.827271,79.375687 
M758.097107,113.724335 
	C757.305176,116.632584 756.513245,119.540833 755.792786,122.186592 
	C750.547607,108.050560 745.187012,93.904465 740.053833,79.676308 
	C735.742737,67.726974 735.859985,67.682503 723.316650,68.065079 
	C723.075745,68.072426 722.842224,68.321037 722.554443,68.486237 
	C723.314697,70.814766 723.937439,73.180214 724.845276,75.430649 
	C732.115295,93.451736 739.416321,111.460434 746.764465,129.449814 
	C748.364136,133.366013 748.272095,137.101562 746.052795,140.693298 
	C741.880371,147.446091 736.931519,153.347595 729.258789,156.450058 
	C728.021606,156.950302 726.252563,158.745438 726.415894,159.631073 
	C727.009338,162.849808 728.319458,165.936401 729.349304,169.042709 
	C743.035400,164.816940 750.184692,157.754395 755.764282,146.037949 
	C763.262817,130.291916 769.414185,113.897316 775.953430,97.704193 
	C779.847961,88.060043 783.377197,78.268402 787.185181,68.241409 
	C782.175964,68.241409 777.737427,68.241409 773.668945,68.241409 
	C768.534119,83.384331 763.510254,98.200119 758.097107,113.724335 
M500.015686,95.786842 
	C500.008270,99.651970 499.922607,103.518837 500.008789,107.381874 
	C500.228638,117.238441 504.496155,124.837204 511.800262,131.558762 
	C520.798523,139.839294 543.557556,141.408035 553.827759,134.139450 
	C553.119446,131.148254 552.411133,128.157043 551.694397,125.130219 
	C533.976318,132.124512 522.158813,127.522850 516.197937,117.671631 
	C510.332397,107.977867 511.211914,93.433846 518.375549,84.559433 
	C525.978027,75.141373 541.452820,74.985863 551.335571,79.792290 
	C555.243896,69.710556 555.271423,69.590782 545.785889,67.411697 
	C534.436340,64.804413 523.636658,66.416908 514.006348,73.072044 
	C506.410950,78.320915 501.981567,85.894119 500.015686,95.786842 
M786.989502,171.821747 
	C785.511841,159.869247 776.288696,155.109909 766.981018,156.061279 
	C758.070557,156.972046 751.258240,165.967941 752.006226,175.618942 
	C752.581177,183.036667 760.553345,192.246140 771.653442,191.038101 
	C779.455444,190.188995 788.203491,183.478378 786.989502,171.821747 
M285.698669,172.353134 
	C284.843750,171.347107 283.988831,170.341080 283.170868,169.378525 
	C286.217926,163.451141 285.414276,159.949493 280.725861,158.296371 
	C276.864929,156.934998 271.256836,158.094406 271.174408,160.498856 
	C270.931946,167.572296 271.087952,174.659378 271.087952,181.613174 
	C283.135254,183.053665 287.217102,180.662216 285.698669,172.353134 
M480.484955,179.017822 
	C481.949951,174.555542 483.414948,170.093277 484.950623,165.415710 
	C481.775726,165.908157 481.775726,165.908157 478.282867,176.270950 
	C474.652405,173.508987 477.241913,166.946121 471.627319,164.742538 
	C470.080444,169.217972 468.731720,173.120209 467.168396,177.643250 
	C465.729767,173.032974 464.450623,168.933685 463.171478,164.834412 
	C462.362061,165.082764 461.552673,165.331100 460.743256,165.579453 
	C462.273987,171.067764 463.804718,176.556091 465.553619,182.826599 
	C471.063477,179.381317 470.416260,173.901108 472.709320,169.585205 
	C473.843689,173.244812 474.768250,176.562988 475.942352,179.790405 
	C476.253632,180.646057 477.332336,181.222534 478.058685,181.927185 
	C478.751953,181.197632 479.445221,180.468079 480.484955,179.017822 
M682.506042,179.001740 
	C683.959045,177.336227 685.108398,174.840851 686.927307,174.175278 
	C690.904236,172.720016 692.730469,175.544937 693.960083,178.989075 
	C694.405396,180.236481 695.667969,181.192108 696.557556,182.280884 
	C697.024658,181.941422 697.491699,181.601959 697.958801,181.262497 
	C695.671753,174.806442 693.462219,168.321030 691.037781,161.916946 
	C690.496277,160.486404 689.200256,159.341507 688.251526,158.065125 
	C687.278442,159.158218 685.870789,160.092926 685.404968,161.370895 
	C682.965637,168.064133 680.765137,174.844406 678.481628,181.594421 
	C678.829285,181.874771 679.177002,182.155106 679.524658,182.435455 
	C680.400208,181.525955 681.275696,180.616455 682.506042,179.001740 
M721.584045,177.839020 
	C723.425781,171.597778 718.882080,169.939392 714.656555,167.761383 
	C713.194214,167.007660 712.326843,165.099823 711.187683,163.719147 
	C713.191956,162.686340 715.136108,161.498444 717.226562,160.687866 
	C718.231628,160.298141 719.512878,160.620712 721.747498,160.620712 
	C718.159485,156.890305 714.821411,157.460587 711.980713,158.746613 
	C706.822693,161.081696 706.629333,166.499146 711.348450,169.628815 
	C712.716919,170.536362 714.535217,170.891998 715.669250,171.993027 
	C716.946777,173.233337 717.684509,175.029694 718.656982,176.584213 
	C717.143616,177.388336 715.708557,178.549072 714.096375,178.902679 
	C712.249207,179.307831 710.244812,178.996582 708.302490,178.996582 
	C710.119141,183.597885 717.280945,183.318359 721.584045,177.839020 
M613.459167,166.997116 
	C610.806030,166.335815 608.164062,165.190475 605.497070,165.128937 
	C601.689697,165.041077 598.969666,168.952774 599.004578,173.569092 
	C599.039856,178.234131 601.761536,181.495331 605.631836,182.023773 
	C614.101257,183.180191 619.014832,174.599411 613.459167,166.997116 
M660.534424,161.011780 
	C662.927246,160.803146 665.320068,160.594498 669.034973,160.270584 
	C665.086487,157.173935 661.853882,157.412704 658.963013,158.759964 
	C653.813110,161.160019 653.604553,166.499893 658.352783,169.625336 
	C659.856323,170.615021 661.808960,171.008575 663.129578,172.162918 
	C664.199707,173.098358 665.495544,175.101471 665.135925,176.026031 
	C664.635864,177.311447 662.801086,178.506790 661.321899,178.875641 
	C659.389709,179.357452 657.246765,178.993652 654.459839,178.993652 
	C657.250854,183.683777 661.327148,182.267441 664.285645,181.534409 
	C667.178955,180.817490 669.607483,178.477386 668.770569,174.426971 
	C667.917419,170.298203 664.645203,169.221069 661.535217,167.842499 
	C658.093323,166.316818 656.749390,164.361847 660.534424,161.011780 
M410.979401,168.429092 
	C410.381653,168.146988 409.561279,168.023315 409.226990,167.553680 
	C408.126740,166.008102 407.202576,164.337158 406.210754,162.714371 
	C408.007782,162.092789 409.776611,161.355545 411.615875,160.907150 
	C412.341766,160.730164 413.241516,161.375641 414.029480,161.301239 
	C414.477692,161.258911 414.975464,160.574936 415.221100,160.068466 
	C415.335968,159.831650 414.933777,159.016159 414.719269,158.997421 
	C412.162750,158.774139 409.373596,157.974625 407.107605,158.723892 
	C405.397064,159.289505 403.566040,161.702057 403.164032,163.586029 
	C402.092926,168.605637 406.690857,169.418976 409.715637,171.552231 
	C411.244995,172.630814 411.860138,175.005753 412.888611,176.794601 
	C411.253510,177.530380 409.680023,178.552048 407.965973,178.921371 
	C406.259491,179.289093 404.411957,179.001953 402.626251,179.001953 
	C407.595490,183.188431 413.657654,182.448685 415.733673,178.409805 
	C418.085114,173.835220 415.254028,171.057571 410.979401,168.429092 
M435.991943,173.479645 
	C435.299255,167.326828 432.804016,164.426895 428.255371,164.488281 
	C423.196686,164.556549 419.430847,168.311661 419.095184,173.622314 
	C418.885864,176.934540 422.844574,181.643768 426.124359,181.984024 
	C432.167664,182.610977 434.624847,180.695724 435.991943,173.479645 
M334.276886,181.659698 
	C334.544464,178.061691 334.582611,174.423935 335.195984,170.885880 
	C335.431183,169.529175 336.948944,167.429245 337.936310,167.398438 
	C339.359955,167.353973 341.437134,168.557480 342.132111,169.830704 
	C343.004700,171.429367 342.790894,173.633759 342.993073,175.582214 
	C343.211914,177.691299 343.369965,179.806671 343.554535,181.919312 
	C344.257355,181.891586 344.960175,181.863861 345.663025,181.836136 
	C345.769348,178.302338 346.112335,174.755798 345.923218,171.237885 
	C345.676758,166.653427 342.832153,164.519638 338.238373,165.016190 
	C335.939606,165.264664 333.643097,165.534424 331.009521,165.832581 
	C331.009521,170.130020 330.869263,174.618057 331.119507,179.084198 
	C331.174194,180.060394 332.622314,180.958527 334.276886,181.659698 
M643.463501,170.067307 
	C643.950928,168.538040 644.438416,167.008774 644.925903,165.479507 
	C644.264160,165.204651 643.602356,164.929779 642.940613,164.654922 
	C641.284424,168.594269 639.628235,172.533630 637.570496,177.428131 
	C636.464478,174.327667 635.649475,172.119141 634.888000,169.892319 
	C633.388306,165.506332 633.400574,165.502136 629.825623,165.887024 
	C631.458130,170.070374 632.998535,174.188370 634.672668,178.251297 
	C635.901672,181.234009 635.377563,183.569946 632.828674,185.651886 
	C631.901489,186.409180 631.490906,187.799042 630.844666,188.900284 
	C639.508301,185.619339 640.566040,177.731171 643.463501,170.067307 
M516.614868,179.983505 
	C520.189026,182.778351 523.967590,182.331146 527.855164,180.537872 
	C525.837646,179.593018 523.725342,179.602219 521.659485,179.296753 
	C518.751038,178.866669 517.145508,177.485077 518.876892,173.889404 
	C522.410278,173.889404 525.999084,173.889404 529.619446,173.889404 
	C529.031982,167.382812 527.267456,165.158005 522.893433,165.014374 
	C515.229614,164.762711 512.113708,171.383499 516.614868,179.983505 
M492.138824,171.430969 
	C488.306488,172.818329 485.528503,175.050797 487.386475,179.527512 
	C489.084015,183.617615 492.347290,181.902435 495.373352,181.219681 
	C496.656586,180.930161 498.147644,181.561554 499.976959,181.840332 
	C499.976959,178.015121 500.649384,174.354691 499.755737,171.127991 
	C499.088470,168.718750 496.752197,166.204681 494.487488,165.001251 
	C492.938416,164.178131 490.233887,165.529495 488.045929,165.908707 
	C488.098602,166.480667 488.151245,167.052628 488.203918,167.624573 
	C491.507324,167.205353 495.244385,165.633255 496.892639,170.581863 
	C495.398224,170.787415 494.132721,170.961472 492.138824,171.430969 
M563.533752,181.238785 
	C564.886963,181.404572 566.240112,181.570374 568.405273,181.835663 
	C567.924011,176.801376 567.969238,172.283127 566.828613,168.087204 
	C566.436707,166.645493 563.169861,165.607544 561.050598,165.144897 
	C559.619507,164.832474 557.898254,165.849411 556.306763,166.271713 
	C556.419189,166.695297 556.531555,167.118866 556.643982,167.542450 
	C562.589600,166.495209 562.883789,166.609848 564.398926,170.493652 
	C562.686890,170.967529 560.759338,171.108185 559.301331,172.008835 
	C557.655640,173.025360 555.572144,174.525253 555.190125,176.166595 
	C554.138428,180.685349 556.680664,182.330673 563.533752,181.238785 
M351.452545,179.919693 
	C354.244659,180.610428 357.011169,181.478516 359.843933,181.888153 
	C360.740356,182.017792 361.813904,180.922852 362.806366,180.388321 
	C361.764374,180.143372 360.694977,179.607971 359.685120,179.703323 
	C355.114777,180.134949 353.177460,178.519302 353.721375,173.779266 
	C357.306366,173.779266 360.985046,173.779266 364.906219,173.779266 
	C364.364899,171.846252 363.940125,170.605576 363.675018,169.331665 
	C362.843018,165.334137 359.994629,164.807190 356.578949,164.990982 
	C353.173401,165.174255 350.622620,166.794342 350.240265,170.093872 
	C349.892242,173.097092 350.628113,176.225922 351.452545,179.919693 
M241.762955,177.380997 
	C245.382645,182.870163 251.439590,183.962784 255.184219,179.025757 
	C250.526352,179.445709 245.396744,181.173096 243.964157,174.291656 
	C248.174210,174.068008 251.988571,173.865372 255.858795,173.659775 
	C254.251740,165.326187 250.225952,162.531921 244.736786,165.765579 
	C240.575165,168.217178 240.648422,172.498169 241.762955,177.380997 
M299.926788,181.035355 
	C301.345490,181.252716 302.764160,181.470078 303.314270,181.554367 
	C303.314270,176.067917 303.314270,170.596268 303.314270,165.124634 
	C302.537476,165.142532 301.760681,165.160431 300.983887,165.178345 
	C300.983887,168.629257 301.220123,172.105286 300.857635,175.517685 
	C300.728119,176.737106 299.250641,178.612549 298.208649,178.742035 
	C296.769592,178.920883 294.542511,178.145874 293.784698,177.018570 
	C292.891602,175.690048 293.178345,173.551437 293.007202,171.758942 
	C292.794556,169.531967 292.636871,167.299759 292.455475,165.069809 
	C291.637665,165.113586 290.819855,165.157349 290.002045,165.201126 
	C290.002045,168.272171 289.943909,171.344543 290.014069,174.413986 
	C290.161011,180.841629 292.804382,182.791733 299.926788,181.035355 
M541.000000,174.395462 
	C541.260803,176.917068 541.521667,179.438690 541.782471,181.960297 
	C542.422668,181.872147 543.062866,181.783997 543.703064,181.695847 
	C543.892883,178.321304 544.082764,174.946747 544.285095,171.350098 
	C547.246948,171.065765 549.956299,170.805679 552.665649,170.545593 
	C552.627625,170.140778 552.589600,169.735977 552.551575,169.331161 
	C549.840820,169.104263 547.130127,168.877365 544.300232,168.640503 
	C544.300232,166.048615 544.300232,163.809067 544.300232,161.378922 
	C547.344971,161.062851 550.117798,160.775009 552.890564,160.487167 
	C552.884399,159.809265 552.878296,159.131378 552.872131,158.453476 
	C549.122620,158.282257 545.373108,158.111038 541.000000,157.911346 
	C541.000000,163.545288 541.000000,168.485489 541.000000,174.395462 
M439.835052,164.090759 
	C439.351562,164.719528 438.403290,165.393295 438.459106,165.969879 
	C438.859375,170.104141 439.441498,174.221756 440.016815,178.337555 
	C440.188263,179.564255 440.522156,180.768265 440.781616,181.982666 
	C441.379486,181.934860 441.977386,181.887039 442.575256,181.839233 
	C442.575256,177.067795 442.575256,172.296356 442.575256,167.601746 
	C444.734222,167.143768 446.034058,166.868042 448.656647,166.311722 
	C445.961182,165.333160 444.641663,164.854111 443.329071,164.377579 
	C443.913208,161.250397 444.171051,157.853455 449.359100,158.543640 
	C447.696320,157.345215 445.421783,156.278793 444.694733,156.932785 
	C442.762054,158.671219 441.496674,161.151520 439.835052,164.090759 
M313.718628,165.013992 
	C312.157532,166.364990 309.702545,167.505264 309.318634,169.133759 
	C309.012451,170.432632 311.077942,172.463394 312.374603,173.915848 
	C313.535095,175.215790 315.083374,176.169540 316.460571,177.276016 
	C314.570709,178.792343 313.223663,179.003387 311.887787,179.270386 
	C310.735870,179.500656 309.596710,179.794678 308.451904,180.060501 
	C308.545227,180.684708 308.638580,181.308899 308.731903,181.933105 
	C311.529388,181.715012 314.656158,182.215271 317.050415,181.117630 
	C321.065948,179.276718 319.832458,174.762955 314.917542,171.920639 
	C313.802185,171.275604 313.061066,169.983398 312.147705,168.989075 
	C313.495026,168.377991 314.833008,167.745163 316.192932,167.163467 
	C317.093140,166.778381 318.024689,166.466614 318.942200,166.122025 
	C318.804260,165.751068 318.666321,165.380112 318.528381,165.009155 
	C317.203552,165.009155 315.878723,165.009155 313.718628,165.013992 
M584.833374,180.729507 
	C583.555237,180.287354 582.289551,179.513275 580.996643,179.464859 
	C577.008606,179.315521 574.330872,176.199036 575.081848,172.267975 
	C575.850952,168.242157 578.657715,166.781967 584.559204,167.337433 
	C583.488403,164.458267 578.009033,163.901245 575.122925,166.378143 
	C572.282715,168.815628 570.710449,174.821365 572.461487,177.727417 
	C575.321777,182.474396 579.741272,182.803558 584.833374,180.729507 
M377.879486,175.943283 
	C376.125641,174.372131 374.330719,172.843460 372.639496,171.207596 
	C372.017151,170.605606 371.153931,169.655014 371.275757,169.035553 
	C371.421631,168.293625 372.409576,167.403473 373.203278,167.178284 
	C374.318878,166.861801 375.591370,167.098267 376.796753,167.098267 
	C376.857666,166.587296 376.918549,166.076324 376.979431,165.565353 
	C375.059967,165.410110 373.040161,164.827316 371.255432,165.246170 
	C370.013550,165.537628 368.156433,167.276474 368.230469,168.241699 
	C368.375366,170.130707 369.458069,172.078400 370.562775,173.726929 
	C371.699097,175.422714 373.324493,176.790787 374.735870,178.302277 
	C372.626617,178.573486 370.513885,178.821304 368.411072,179.135559 
	C367.988708,179.198685 367.604065,179.514114 367.202026,179.713211 
	C367.166504,180.219803 367.130981,180.726379 367.095428,181.232971 
	C369.731750,181.441803 372.536041,182.269608 374.938751,181.617599 
	C376.289612,181.251022 376.977386,178.440720 377.879486,175.943283 
M589.429932,164.661133 
	C588.716553,164.975250 588.003174,165.289368 588.091248,165.250610 
	C588.817688,167.587021 589.658569,169.452484 589.932312,171.397781 
	C590.230652,173.517609 589.922241,175.715164 590.021729,177.872238 
	C590.227417,182.333893 592.517273,183.226273 596.827209,180.583282 
	C591.496216,176.250656 591.355408,168.968399 595.758606,166.272354 
	C594.396118,164.230865 593.053894,162.219711 591.056519,159.226944 
	C590.524963,161.296219 590.179016,162.642914 589.429932,164.661133 
M388.848877,167.062134 
	C389.443939,167.050858 390.038971,167.039581 390.634064,167.028290 
	C390.522430,166.457001 390.352325,165.381348 390.307526,165.386536 
	C387.612305,165.698959 384.927429,166.100235 382.241547,166.493118 
	C382.842987,168.816055 383.049286,171.353867 384.161499,173.399048 
	C385.189606,175.289688 387.188171,176.652588 388.759338,178.247925 
	C386.498047,178.574997 384.234192,178.886047 381.978912,179.250687 
	C381.715973,179.293182 381.501038,179.632309 381.263824,179.833939 
	C381.223816,180.312286 381.183807,180.790649 381.143799,181.269012 
	C383.795502,181.455414 386.504089,182.027649 389.072418,181.648804 
	C390.185455,181.484634 392.014130,179.081406 391.764343,178.182251 
	C391.165771,176.027390 389.566193,174.135727 388.270630,172.204941 
	C388.070312,171.906372 387.114990,172.125290 386.898682,171.824524 
	C386.192719,170.842911 385.667206,169.731537 385.072266,168.670074 
	C386.079559,168.119614 387.086853,167.569153 388.848877,167.062134 
M451.000092,174.359741 
	C451.938538,176.845535 452.677765,179.444931 453.977753,181.724548 
	C454.248932,182.200104 456.592682,181.493744 457.981323,181.332047 
	C451.344879,177.524719 454.631714,172.084610 454.171448,167.484085 
	C455.739410,167.144836 457.034851,166.864548 457.779510,166.703430 
	C455.984558,164.617126 454.310760,162.671692 452.457458,160.517578 
	C452.219940,160.812180 451.622101,161.479691 451.106567,162.205658 
	C448.462372,165.929031 451.897064,169.721298 451.000092,174.359741 
M619.002380,169.812347 
	C619.013367,173.112991 618.901978,176.421967 619.126221,179.708054 
	C619.178589,180.474152 620.371277,181.162415 621.039307,181.886505 
	C621.682190,181.136566 622.811401,180.433212 622.888489,179.629044 
	C623.363708,174.668015 620.906433,168.724686 627.809265,165.699829 
	C625.023071,165.699829 622.236877,165.699829 619.230713,165.699829 
	C619.163330,166.651138 619.083069,167.783279 619.002380,169.812347 
M507.988068,172.930756 
	C509.530609,170.602020 511.073151,168.273285 512.903931,165.509430 
	C509.946198,165.509430 507.099609,165.509430 504.454376,165.509430 
	C504.797791,170.978867 505.140198,176.432327 505.482635,181.885788 
	C506.204437,181.889053 506.926270,181.892303 507.648102,181.895554 
	C507.760345,179.202637 507.872559,176.509705 507.988068,172.930756 
M326.800751,180.938187 
	C327.714111,166.498398 327.587097,165.919159 323.022949,165.602051 
	C323.022949,170.246918 322.870575,174.878922 323.169495,179.481644 
	C323.220703,180.270126 325.197418,180.933533 326.800751,180.938187 
z"/>
<path fill="#0F298F" opacity="1.000000" stroke="none" 
	d="
M103.562538,208.736938 
	C83.041405,203.273804 65.791252,192.791031 49.622452,178.828339 
	C54.379005,173.410919 59.012882,168.142838 63.636330,162.865616 
	C77.773552,146.729385 91.890305,130.575180 106.048103,114.457031 
	C113.754959,105.683060 121.466217,96.911430 129.290100,88.242195 
	C137.144455,79.539223 137.254227,71.120338 128.379654,62.029171 
	C117.025223,50.397629 103.253922,42.909359 86.881203,41.072357 
	C80.251297,40.328480 73.542358,40.288960 66.273911,39.896797 
	C73.328888,38.550411 80.005348,37.200684 86.710335,36.011818 
	C102.487381,33.214378 116.810196,38.329475 130.287613,45.396145 
	C136.939102,48.883739 143.172058,54.111938 148.032898,59.870594 
	C157.356003,70.915665 155.824936,78.812828 147.739166,88.604591 
	C134.195648,105.005661 120.250107,121.077644 106.334946,137.168076 
	C94.891548,150.400345 83.246750,163.458435 70.761353,177.650711 
	C78.306389,181.849106 84.790024,186.015656 91.729164,189.184845 
	C101.695717,193.736725 112.301521,196.027344 123.357544,196.020065 
	C140.949036,196.008499 156.402786,189.703934 170.043076,179.223083 
	C184.516556,168.102005 194.990219,153.698135 200.787888,136.273270 
	C206.791870,118.228401 205.749603,100.237900 198.763016,82.676140 
	C191.098251,63.409649 178.861404,47.584721 161.094299,36.689060 
	C146.264526,27.594725 130.447800,20.770178 112.632652,20.018898 
	C111.290314,19.962288 109.974518,19.276281 108.744987,18.553308 
	C135.138168,15.688334 158.090363,23.855289 178.550995,40.063984 
	C198.830002,56.128819 210.813187,77.485855 215.691132,102.365730 
	C220.860672,128.732925 215.239182,153.540848 198.406723,174.736160 
	C183.943497,192.948181 164.954346,204.496033 141.802460,209.159027 
	C129.044144,211.728683 116.556267,211.085007 103.562538,208.736938 
z"/>
<path fill="#7FBC03" opacity="1.000000" stroke="none" 
	d="
M312.929260,40.984833 
	C327.690582,39.170818 342.135498,37.891888 354.807739,46.536701 
	C365.909698,54.110336 367.174347,73.826012 352.619995,82.725159 
	C351.250519,83.562492 349.781189,84.236534 348.837341,84.733917 
	C353.293793,88.319283 358.432465,91.251732 361.962494,95.515846 
	C373.151184,109.031265 365.429504,129.742599 348.532104,134.970978 
	C336.203918,138.785553 323.619568,138.864487 310.947815,137.100449 
	C309.495819,136.898331 308.014862,136.904190 306.000366,136.779831 
	C306.000366,135.002274 306.000366,133.385559 306.000366,131.768860 
	C306.000336,103.632637 306.134949,75.495193 305.879639,47.361290 
	C305.832123,42.126995 307.745544,40.498402 312.929260,40.984833 
M318.287537,50.720421 
	C318.191040,59.781162 318.062836,68.841835 318.043457,77.902740 
	C318.041351,78.887772 318.667450,79.874146 319.931946,80.972878 
	C320.760986,80.981926 321.591980,81.032539 322.418762,80.993462 
	C329.226196,80.671738 336.095978,81.979637 342.630157,78.212090 
	C349.514069,74.242889 350.824799,68.367668 349.953766,61.411213 
	C349.263214,55.896221 345.512482,52.245640 340.498169,51.456421 
	C333.419952,50.342369 326.130341,50.571411 318.287537,50.720421 
M318.235535,91.504234 
	C318.155518,101.662224 318.028748,111.820259 318.037201,121.978172 
	C318.038788,123.883644 318.580811,125.788658 319.795502,127.939423 
	C326.192078,127.622993 332.604523,127.490097 338.980743,126.938301 
	C345.305847,126.390938 352.255615,119.802872 352.985016,114.121338 
	C354.309418,103.804420 350.838928,97.395523 343.214966,93.860481 
	C335.319397,90.199471 327.174652,91.081169 318.235535,91.504234 
z"/>
<path fill="#0F298F" opacity="1.000000" stroke="none" 
	d="
M26.249603,89.446045 
	C32.356884,80.397247 39.987926,73.779411 50.348358,71.126236 
	C64.393456,67.529465 76.675529,71.980171 87.818886,80.396057 
	C90.129036,82.140778 92.144554,84.308617 94.145683,86.423546 
	C101.125320,93.800125 98.061447,96.693291 93.594872,101.769737 
	C79.630188,117.641182 65.144577,133.054291 50.859882,148.644135 
	C46.688484,153.196671 42.513844,157.746216 37.709965,162.984955 
	C24.151152,139.371582 14.231041,116.346565 26.249603,89.446045 
M54.969120,125.510452 
	C61.968494,117.841255 68.970222,110.174202 75.966026,102.501740 
	C78.554192,99.663239 78.585220,96.545219 75.640976,94.304680 
	C71.611534,91.238289 67.383820,88.161293 62.769718,86.194923 
	C54.935013,82.856033 43.897148,86.817123 39.032997,93.889641 
	C34.606686,100.325531 34.112011,107.318642 34.841503,114.957886 
	C35.642082,123.341530 40.037773,129.854202 43.709145,137.888168 
	C47.707973,133.445786 51.067223,129.713928 54.969120,125.510452 
z"/>
<path fill="#7FBC03" opacity="1.000000" stroke="none" 
	d="
M241.241364,125.567268 
	C231.187729,110.530197 232.520584,84.016075 245.137085,71.655716 
	C252.702789,64.243622 262.096436,61.065804 273.420227,62.715076 
	C286.077911,64.558624 293.168213,71.642357 296.357300,83.062622 
	C297.968231,88.831429 297.875763,95.075905 298.626923,101.758652 
	C281.441895,101.758652 265.062408,101.758652 248.809525,101.758652 
	C245.815033,116.011559 255.192047,127.682793 269.048920,128.052826 
	C277.916046,128.289612 285.844208,125.748497 293.294769,121.214989 
	C294.199280,120.664627 295.216034,120.298805 296.992737,119.467598 
	C296.992737,123.660858 297.186462,127.102676 296.884003,130.500336 
	C296.782928,131.635986 295.648041,133.171494 294.588959,133.654877 
	C282.257294,139.283249 269.295593,141.363312 256.442841,136.683578 
	C250.865356,134.652802 246.395599,129.579712 241.241364,125.567268 
M247.495316,92.350861 
	C248.074738,92.564919 248.653549,92.963814 249.233673,92.965706 
	C260.619141,93.002975 272.004852,93.014664 283.390076,92.951790 
	C284.214203,92.947235 285.034943,92.331581 285.966888,91.180435 
	C285.643555,89.442520 285.740784,87.465569 284.915253,86.013092 
	C282.746674,82.197670 281.017670,77.030083 277.613953,75.218056 
	C265.637878,68.842392 248.499069,74.838921 247.495316,92.350861 
z"/>
<path fill="#7FBC03" opacity="1.000000" stroke="none" 
	d="
M663.757324,128.734894 
	C652.479553,138.614517 640.006775,141.241913 625.995483,136.959625 
	C616.771118,134.140411 607.066895,121.142242 605.838684,111.485504 
	C604.712585,102.631683 604.812805,94.192833 608.488098,85.989891 
	C612.595154,76.823738 619.346008,70.471130 628.994080,67.528954 
	C642.642395,63.366890 658.737061,68.481850 665.800537,78.593193 
	C673.189758,89.171051 675.011780,101.066917 671.621155,113.327599 
	C670.143860,118.669540 666.610657,123.442902 663.757324,128.734894 
M650.938721,124.557785 
	C652.395752,122.791618 654.055420,121.154411 655.275696,119.237518 
	C661.387329,109.636909 661.077454,99.430420 657.526672,89.140770 
	C654.838379,81.350555 647.708862,76.473732 640.330994,75.912300 
	C632.301575,75.301292 624.631897,80.944466 621.350708,88.018173 
	C617.641724,96.014267 616.847534,104.260010 619.168823,112.408524 
	C622.934998,125.629280 636.477844,134.994049 650.938721,124.557785 
z"/>
<path fill="#7FBC03" opacity="1.000000" stroke="none" 
	d="
M443.586700,79.096100 
	C442.690948,76.660065 442.035797,74.503616 441.310638,72.116791 
	C452.461334,66.211037 464.069061,63.933941 476.180267,68.213745 
	C484.823334,71.267998 489.330719,78.691139 489.753571,87.127838 
	C490.572662,103.470253 489.993011,119.882767 489.993011,136.635849 
	C487.328247,136.635849 483.938721,136.635849 480.509888,136.635849 
	C479.944611,134.287231 479.380432,131.943100 479.050079,130.570450 
	C473.858887,133.021881 468.702240,136.022003 463.171844,137.950195 
	C451.883209,141.886032 441.051208,134.762466 437.589691,126.098267 
	C433.553741,115.996178 438.000427,104.705597 448.076660,98.942383 
	C456.656921,94.034790 466.018890,93.063904 475.609192,92.978729 
	C476.248047,92.973061 476.885651,92.826424 477.474121,92.751663 
	C478.754150,82.548645 472.892822,75.902931 463.844635,75.893585 
	C457.765381,75.887314 452.133331,76.864326 446.734283,79.617844 
	C445.997955,79.993362 444.807465,79.478371 443.586700,79.096100 
M471.912628,125.607780 
	C480.110809,119.434258 477.819702,110.728508 477.853638,102.180031 
	C469.233887,101.560585 461.334015,102.502556 454.115723,106.978477 
	C450.629669,109.140114 447.975708,115.656029 449.096344,120.459763 
	C450.171082,125.066742 453.131500,128.819183 457.998077,128.799301 
	C462.452209,128.781097 466.899414,127.071373 471.912628,125.607780 
z"/>
<path fill="#7FBC03" opacity="1.000000" stroke="none" 
	d="
M758.291748,113.370117 
	C763.510254,98.200119 768.534119,83.384331 773.668945,68.241409 
	C777.737427,68.241409 782.175964,68.241409 787.185181,68.241409 
	C783.377197,78.268402 779.847961,88.060043 775.953430,97.704193 
	C769.414185,113.897316 763.262817,130.291916 755.764282,146.037949 
	C750.184692,157.754395 743.035400,164.816940 729.349304,169.042709 
	C728.319458,165.936401 727.009338,162.849808 726.415894,159.631073 
	C726.252563,158.745438 728.021606,156.950302 729.258789,156.450058 
	C736.931519,153.347595 741.880371,147.446091 746.052795,140.693298 
	C748.272095,137.101562 748.364136,133.366013 746.764465,129.449814 
	C739.416321,111.460434 732.115295,93.451736 724.845276,75.430649 
	C723.937439,73.180214 723.314697,70.814766 722.554443,68.486237 
	C722.842224,68.321037 723.075745,68.072426 723.316650,68.065079 
	C735.859985,67.682503 735.742737,67.726974 740.053833,79.676308 
	C745.187012,93.904465 750.547607,108.050560 755.792786,122.186592 
	C756.513245,119.540833 757.305176,116.632584 758.291748,113.370117 
z"/>
<path fill="#7FBC03" opacity="1.000000" stroke="none" 
	d="
M434.839203,40.987690 
	C434.839203,44.112709 434.839203,47.237724 434.839203,51.012486 
	C422.105347,51.012486 409.547821,51.012486 396.220795,51.315796 
	C395.300964,60.683590 395.103607,69.747803 395.050812,78.812851 
	C395.042816,80.184502 395.707245,81.560066 396.060669,82.933823 
	C407.823486,82.933823 419.586304,82.933823 431.967377,82.933823 
	C431.967377,86.260803 431.967377,89.185829 431.444122,92.560455 
	C420.982269,93.006721 411.043213,92.952438 401.105560,93.048775 
	C399.391052,93.065392 397.682709,93.721352 395.971527,94.081993 
	C395.971527,94.081985 395.973633,93.974258 395.723999,94.266190 
	C395.323639,108.650864 395.172882,122.743614 395.022095,136.836365 
	C391.224579,136.836365 387.427032,136.836365 383.031525,136.836365 
	C383.031525,105.062904 383.031525,73.490707 383.553558,41.457344 
	C400.996796,40.993351 417.917999,40.990520 434.839203,40.987690 
z"/>
<path fill="#7FBC04" opacity="1.000000" stroke="none" 
	d="
M500.047577,95.356674 
	C501.981567,85.894119 506.410950,78.320915 514.006348,73.072044 
	C523.636658,66.416908 534.436340,64.804413 545.785889,67.411697 
	C555.271423,69.590782 555.243896,69.710556 551.335571,79.792290 
	C541.452820,74.985863 525.978027,75.141373 518.375549,84.559433 
	C511.211914,93.433846 510.332397,107.977867 516.197937,117.671631 
	C522.158813,127.522850 533.976318,132.124512 551.694397,125.130219 
	C552.411133,128.157043 553.119446,131.148254 553.828064,134.141602 
	C543.557556,141.408035 520.798523,139.839294 511.800262,131.558762 
	C504.496155,124.837204 500.228638,117.238441 500.008789,107.381874 
	C499.922607,103.518837 500.008270,99.651970 500.047577,95.356674 
z"/>
<path fill="#7FBC03" opacity="1.000000" stroke="none" 
	d="
M569.914429,78.049637 
	C566.788086,78.049637 563.661682,78.049637 560.271362,78.049637 
	C560.271362,74.628708 560.271362,71.694183 560.271362,68.179886 
	C563.281799,68.179886 566.347534,68.179886 570.000183,68.179886 
	C570.000183,65.010605 570.233215,62.376579 569.944031,59.801182 
	C569.537903,56.184155 570.770874,54.292667 574.483215,53.726273 
	C577.130798,53.322342 579.688782,52.331333 582.860535,51.441277 
	C582.860535,57.307934 582.860535,62.262516 582.860535,67.796814 
	C588.920044,67.796814 594.650757,67.796814 600.682678,67.796814 
	C600.682678,71.420334 600.682678,74.465515 600.682678,77.919754 
	C594.889343,77.919754 589.284058,77.919754 583.000000,77.919754 
	C583.000000,84.400345 583.000000,90.498611 583.000000,96.596886 
	C583.000000,102.762093 583.126221,108.930435 582.973389,115.091858 
	C582.667603,127.426170 588.895508,129.671310 599.338501,127.186829 
	C599.520569,127.421951 599.854919,127.652527 599.871826,127.904457 
	C600.565735,138.215103 599.733154,139.338898 589.205750,138.925995 
	C577.824097,138.479568 571.845886,132.532364 570.972534,122.557114 
	C570.831665,120.948151 570.357178,119.368408 570.350220,117.038124 
	C570.763977,104.259117 570.882568,92.217201 570.919373,80.175049 
	C570.921570,79.467606 570.264648,78.758156 569.914429,78.049637 
z"/>
<path fill="#7FBC03" opacity="1.000000" stroke="none" 
	d="
M682.191040,78.293022 
	C682.191040,75.137642 682.191040,71.982262 682.191040,68.413567 
	C685.546692,68.413567 688.924011,68.413567 692.596619,68.413567 
	C692.956665,71.698418 693.332092,75.123413 693.611267,77.669975 
	C698.369629,74.079147 702.559753,70.021797 707.509033,67.394730 
	C714.711548,63.571651 717.004456,65.301018 717.000061,73.237503 
	C716.999146,74.892006 716.999939,76.546516 716.999939,78.225677 
	C705.947083,77.038597 697.175354,83.305794 696.175903,94.153412 
	C695.145386,105.339539 695.324280,116.638161 695.011597,127.888611 
	C694.933594,130.695572 695.000000,133.506546 695.000000,136.968185 
	C691.103516,136.968185 687.507874,136.968185 683.458130,136.446594 
	C683.006775,119.326767 683.044983,102.728363 682.975281,86.130417 
	C682.964294,83.516907 682.464722,80.905434 682.191040,78.293022 
z"/>
<path fill="#112B90" opacity="1.000000" stroke="none" 
	d="
M786.991577,172.257187 
	C788.203491,183.478378 779.455444,190.188995 771.653442,191.038101 
	C760.553345,192.246140 752.581177,183.036667 752.006226,175.618942 
	C751.258240,165.967941 758.070557,156.972046 766.981018,156.061279 
	C776.288696,155.109909 785.511841,159.869247 786.991577,172.257187 
M772.947021,160.027557 
	C767.477722,159.490677 762.503784,160.275742 758.668457,164.800415 
	C755.983459,167.967957 754.930664,175.899460 756.917419,179.784943 
	C759.161804,184.174240 765.552734,188.300140 769.550476,187.940704 
	C776.752991,187.293121 782.476135,182.219070 783.783508,175.321732 
	C784.858887,169.648499 780.683472,163.280243 772.947021,160.027557 
z"/>
<path fill="#102A8F" opacity="1.000000" stroke="none" 
	d="
M285.809357,172.739304 
	C287.217102,180.662216 283.135254,183.053665 271.087952,181.613174 
	C271.087952,174.659378 270.931946,167.572296 271.174408,160.498856 
	C271.256836,158.094406 276.864929,156.934998 280.725861,158.296371 
	C285.414276,159.949493 286.217926,163.451141 283.170868,169.378525 
	C283.988831,170.341080 284.843750,171.347107 285.809357,172.739304 
M280.815826,178.531555 
	C281.351440,176.700058 282.843018,173.774719 282.239227,173.247040 
	C280.584198,171.800674 278.048187,171.362381 275.403320,170.349823 
	C275.403320,174.340714 275.403320,176.985718 275.403320,179.688889 
	C277.238983,179.366440 278.669525,179.115143 280.815826,178.531555 
M275.215424,167.046860 
	C277.100403,166.887009 279.104614,167.046951 280.811737,166.410263 
	C281.496552,166.154861 282.175079,163.695679 281.714996,163.037582 
	C280.894562,161.864090 279.237885,160.659271 277.875610,160.592270 
	C273.174805,160.361084 275.670898,164.158035 275.215424,167.046860 
z"/>
<path fill="#0F298F" opacity="1.000000" stroke="none" 
	d="
M480.311707,179.378174 
	C479.445221,180.468079 478.751953,181.197632 478.058685,181.927185 
	C477.332336,181.222534 476.253632,180.646057 475.942352,179.790405 
	C474.768250,176.562988 473.843689,173.244812 472.709320,169.585205 
	C470.416260,173.901108 471.063477,179.381317 465.553619,182.826599 
	C463.804718,176.556091 462.273987,171.067764 460.743256,165.579453 
	C461.552673,165.331100 462.362061,165.082764 463.171478,164.834412 
	C464.450623,168.933685 465.729767,173.032974 467.168396,177.643250 
	C468.731720,173.120209 470.080444,169.217972 471.627319,164.742538 
	C477.241913,166.946121 474.652405,173.508987 478.282867,176.270950 
	C481.775726,165.908157 481.775726,165.908157 484.950623,165.415710 
	C483.414948,170.093277 481.949951,174.555542 480.311707,179.378174 
z"/>
<path fill="#102A90" opacity="1.000000" stroke="none" 
	d="
M682.328613,179.354355 
	C681.275696,180.616455 680.400208,181.525955 679.524658,182.435455 
	C679.177002,182.155106 678.829285,181.874771 678.481628,181.594421 
	C680.765137,174.844406 682.965637,168.064133 685.404968,161.370895 
	C685.870789,160.092926 687.278442,159.158218 688.251526,158.065109 
	C689.200256,159.341507 690.496277,160.486404 691.037781,161.916946 
	C693.462219,168.321030 695.671753,174.806442 697.958801,181.262497 
	C697.491699,181.601959 697.024658,181.941422 696.557556,182.280884 
	C695.667969,181.192108 694.405396,180.236481 693.960083,178.989075 
	C692.730469,175.544937 690.904236,172.720016 686.927307,174.175278 
	C685.108398,174.840851 683.959045,177.336227 682.328613,179.354355 
M690.178711,168.407486 
	C689.643921,166.803909 689.109070,165.200333 688.152832,162.333084 
	C686.861572,166.203278 685.985168,168.829987 684.666199,172.783340 
	C687.460571,171.014618 691.250977,174.240540 690.178711,168.407486 
z"/>
<path fill="#0F298F" opacity="1.000000" stroke="none" 
	d="
M721.365173,178.175751 
	C717.280945,183.318359 710.119141,183.597885 708.302490,178.996582 
	C710.244812,178.996582 712.249207,179.307831 714.096375,178.902679 
	C715.708557,178.549072 717.143616,177.388336 718.656982,176.584213 
	C717.684509,175.029694 716.946777,173.233337 715.669250,171.993027 
	C714.535217,170.891998 712.716919,170.536362 711.348450,169.628815 
	C706.629333,166.499146 706.822693,161.081696 711.980713,158.746613 
	C714.821411,157.460587 718.159485,156.890305 721.747498,160.620712 
	C719.512878,160.620712 718.231628,160.298141 717.226562,160.687866 
	C715.136108,161.498444 713.191956,162.686340 711.187683,163.719147 
	C712.326843,165.099823 713.194214,167.007660 714.656555,167.761383 
	C718.882080,169.939392 723.425781,171.597778 721.365173,178.175751 
z"/>
<path fill="#102A90" opacity="1.000000" stroke="none" 
	d="
M613.744141,167.278931 
	C619.014832,174.599411 614.101257,183.180191 605.631836,182.023773 
	C601.761536,181.495331 599.039856,178.234131 599.004578,173.569092 
	C598.969666,168.952774 601.689697,165.041077 605.497070,165.128937 
	C608.164062,165.190475 610.806030,166.335815 613.744141,167.278931 
M612.001282,173.412415 
	C612.533691,169.572281 610.870850,166.964615 607.035461,167.280441 
	C605.579773,167.400299 603.531311,170.002060 603.182800,171.756592 
	C602.567688,174.853455 602.068481,178.914413 606.645508,179.692184 
	C610.390747,180.328629 611.834473,177.673279 612.001282,173.412415 
z"/>
<path fill="#0F298F" opacity="1.000000" stroke="none" 
	d="
M660.166626,161.104401 
	C656.749390,164.361847 658.093323,166.316818 661.535217,167.842499 
	C664.645203,169.221069 667.917419,170.298203 668.770569,174.426971 
	C669.607483,178.477386 667.178955,180.817490 664.285645,181.534409 
	C661.327148,182.267441 657.250854,183.683777 654.459839,178.993652 
	C657.246765,178.993652 659.389709,179.357452 661.321899,178.875641 
	C662.801086,178.506790 664.635864,177.311447 665.135925,176.026031 
	C665.495544,175.101471 664.199707,173.098358 663.129578,172.162918 
	C661.808960,171.008575 659.856323,170.615021 658.352783,169.625336 
	C653.604553,166.499893 653.813110,161.160019 658.963013,158.759964 
	C661.853882,157.412704 665.086487,157.173935 669.034973,160.270584 
	C665.320068,160.594498 662.927246,160.803146 660.166626,161.104401 
z"/>
<path fill="#102A90" opacity="1.000000" stroke="none" 
	d="
M411.282776,168.642883 
	C415.254028,171.057571 418.085114,173.835220 415.733673,178.409805 
	C413.657654,182.448685 407.595490,183.188431 402.626251,179.001953 
	C404.411957,179.001953 406.259491,179.289093 407.965973,178.921371 
	C409.680023,178.552048 411.253510,177.530380 412.888611,176.794586 
	C411.860138,175.005753 411.244995,172.630814 409.715637,171.552231 
	C406.690857,169.418976 402.092926,168.605637 403.164032,163.586029 
	C403.566040,161.702057 405.397064,159.289505 407.107605,158.723892 
	C409.373596,157.974625 412.162750,158.774139 414.719269,158.997421 
	C414.933777,159.016159 415.335968,159.831650 415.221100,160.068466 
	C414.975464,160.574936 414.477692,161.258911 414.029480,161.301239 
	C413.241516,161.375641 412.341766,160.730164 411.615875,160.907150 
	C409.776611,161.355545 408.007782,162.092789 406.210754,162.714355 
	C407.202576,164.337158 408.126740,166.008102 409.226990,167.553680 
	C409.561279,168.023315 410.381653,168.146988 411.282776,168.642883 
z"/>
<path fill="#122B90" opacity="1.000000" stroke="none" 
	d="
M435.990265,173.887512 
	C434.624847,180.695724 432.167664,182.610977 426.124359,181.984024 
	C422.844574,181.643768 418.885864,176.934540 419.095184,173.622314 
	C419.430847,168.311661 423.196686,164.556549 428.255371,164.488281 
	C432.804016,164.426895 435.299255,167.326828 435.990265,173.887512 
M428.380890,167.040817 
	C426.885773,167.915527 424.317413,168.591064 424.110687,169.704895 
	C423.625122,172.321060 423.804749,175.313354 424.698090,177.800369 
	C425.025848,178.712830 428.465271,179.433746 429.888275,178.831436 
	C432.742279,177.623428 433.817322,174.872360 432.365601,171.848282 
	C431.553772,170.157104 430.240143,168.706772 428.380890,167.040817 
z"/>
<path fill="#0F298F" opacity="1.000000" stroke="none" 
	d="
M333.852783,181.776154 
	C332.622314,180.958527 331.174194,180.060394 331.119507,179.084198 
	C330.869263,174.618057 331.009521,170.130020 331.009521,165.832581 
	C333.643097,165.534424 335.939606,165.264664 338.238373,165.016190 
	C342.832153,164.519638 345.676758,166.653427 345.923218,171.237885 
	C346.112335,174.755798 345.769348,178.302338 345.663025,181.836136 
	C344.960175,181.863861 344.257355,181.891586 343.554535,181.919312 
	C343.369965,179.806671 343.211914,177.691299 342.993073,175.582214 
	C342.790894,173.633759 343.004700,171.429367 342.132111,169.830704 
	C341.437134,168.557480 339.359955,167.353973 337.936310,167.398438 
	C336.948944,167.429245 335.431183,169.529175 335.195984,170.885880 
	C334.582611,174.423935 334.544464,178.061691 333.852783,181.776154 
z"/>
<path fill="#112B90" opacity="1.000000" stroke="none" 
	d="
M643.296753,170.420166 
	C640.566040,177.731171 639.508301,185.619339 630.844666,188.900284 
	C631.490906,187.799042 631.901489,186.409180 632.828674,185.651886 
	C635.377563,183.569946 635.901672,181.234009 634.672668,178.251297 
	C632.998535,174.188370 631.458130,170.070374 629.825623,165.887024 
	C633.400574,165.502136 633.388306,165.506332 634.888000,169.892319 
	C635.649475,172.119141 636.464478,174.327667 637.570496,177.428131 
	C639.628235,172.533630 641.284424,168.594269 642.940613,164.654922 
	C643.602356,164.929779 644.264160,165.204651 644.925903,165.479507 
	C644.438416,167.008774 643.950928,168.538040 643.296753,170.420166 
z"/>
<path fill="#142D91" opacity="1.000000" stroke="none" 
	d="
M516.383362,179.661346 
	C512.113708,171.383499 515.229614,164.762711 522.893433,165.014374 
	C527.267456,165.158005 529.031982,167.382812 529.619446,173.889404 
	C525.999084,173.889404 522.410278,173.889404 518.876892,173.889404 
	C517.145508,177.485077 518.751038,178.866669 521.659485,179.296753 
	C523.725342,179.602219 525.837646,179.593018 527.855164,180.537872 
	C523.967590,182.331146 520.189026,182.778351 516.383362,179.661346 
M523.870300,167.485107 
	C520.238098,166.392258 518.406250,167.699768 518.183960,171.716248 
	C520.840332,171.716248 523.205139,171.716248 526.411560,171.716248 
	C525.560669,170.091293 525.012878,169.045166 523.870300,167.485107 
z"/>
<path fill="#112B90" opacity="1.000000" stroke="none" 
	d="
M492.503021,171.283249 
	C494.132721,170.961472 495.398224,170.787415 496.892639,170.581863 
	C495.244385,165.633255 491.507324,167.205353 488.203918,167.624573 
	C488.151245,167.052628 488.098602,166.480667 488.045929,165.908707 
	C490.233887,165.529495 492.938416,164.178131 494.487488,165.001251 
	C496.752197,166.204681 499.088470,168.718750 499.755737,171.127991 
	C500.649384,174.354691 499.976959,178.015121 499.976959,181.840332 
	C498.147644,181.561554 496.656586,180.930161 495.373352,181.219681 
	C492.347290,181.902435 489.084015,183.617615 487.386475,179.527512 
	C485.528503,175.050797 488.306488,172.818329 492.503021,171.283249 
M493.242828,179.843964 
	C496.093964,178.574173 497.547546,176.628754 496.295746,172.181274 
	C493.916382,173.611328 491.907837,174.601913 490.289246,176.033417 
	C490.056213,176.239487 491.700714,178.568481 493.242828,179.843964 
z"/>
<path fill="#112B90" opacity="1.000000" stroke="none" 
	d="
M563.173157,181.429520 
	C556.680664,182.330673 554.138428,180.685349 555.190125,176.166595 
	C555.572144,174.525253 557.655640,173.025360 559.301331,172.008835 
	C560.759338,171.108185 562.686890,170.967529 564.398926,170.493652 
	C562.883789,166.609848 562.589600,166.495209 556.643982,167.542450 
	C556.531555,167.118866 556.419189,166.695297 556.306763,166.271713 
	C557.898254,165.849411 559.619507,164.832474 561.050598,165.144897 
	C563.169861,165.607544 566.436707,166.645493 566.828613,168.087204 
	C567.969238,172.283127 567.924011,176.801376 568.405273,181.835663 
	C566.240112,181.570374 564.886963,181.404572 563.173157,181.429520 
M559.950134,179.375900 
	C565.090332,178.898026 565.623474,178.108505 564.098267,173.233231 
	C558.338501,173.742950 557.273315,175.022491 559.950134,179.375900 
z"/>
<path fill="#112A90" opacity="1.000000" stroke="none" 
	d="
M351.169373,179.609528 
	C350.628113,176.225922 349.892242,173.097092 350.240265,170.093872 
	C350.622620,166.794342 353.173401,165.174255 356.578949,164.990982 
	C359.994629,164.807190 362.843018,165.334137 363.675018,169.331665 
	C363.940125,170.605576 364.364899,171.846252 364.906219,173.779266 
	C360.985046,173.779266 357.306366,173.779266 353.721375,173.779266 
	C353.177460,178.519302 355.114777,180.134949 359.685120,179.703323 
	C360.694977,179.607971 361.764374,180.143372 362.806366,180.388336 
	C361.813904,180.922852 360.740356,182.017792 359.843933,181.888153 
	C357.011169,181.478516 354.244659,180.610428 351.169373,179.609528 
M354.596313,167.985947 
	C354.069550,169.104813 353.542816,170.223663 352.832764,171.731903 
	C356.012878,171.731903 358.266602,171.731903 360.793915,171.731903 
	C360.757416,167.449448 358.893188,166.234894 354.596313,167.985947 
z"/>
<path fill="#112B90" opacity="1.000000" stroke="none" 
	d="
M241.525879,177.051758 
	C240.648422,172.498169 240.575165,168.217178 244.736786,165.765579 
	C250.225952,162.531921 254.251740,165.326187 255.858795,173.659775 
	C251.988571,173.865372 248.174210,174.068008 243.964157,174.291656 
	C245.396744,181.173096 250.526352,179.445709 255.184219,179.025757 
	C251.439590,183.962784 245.382645,182.870163 241.525879,177.051758 
M250.788086,167.458435 
	C247.078491,166.231918 244.839035,167.354568 244.280670,171.715454 
	C247.133209,171.715454 249.823730,171.715454 253.013779,171.715454 
	C252.363449,170.261978 251.858292,169.132950 250.788086,167.458435 
z"/>
<path fill="#0F298F" opacity="1.000000" stroke="none" 
	d="
M299.583801,181.170044 
	C292.804382,182.791733 290.161011,180.841629 290.014069,174.413986 
	C289.943909,171.344543 290.002045,168.272171 290.002045,165.201126 
	C290.819855,165.157349 291.637665,165.113586 292.455475,165.069809 
	C292.636871,167.299759 292.794556,169.531967 293.007202,171.758942 
	C293.178345,173.551437 292.891602,175.690048 293.784698,177.018570 
	C294.542511,178.145874 296.769592,178.920883 298.208649,178.742035 
	C299.250641,178.612549 300.728119,176.737106 300.857635,175.517685 
	C301.220123,172.105286 300.983887,168.629257 300.983887,165.178345 
	C301.760681,165.160431 302.537476,165.142532 303.314270,165.124634 
	C303.314270,170.596268 303.314270,176.067917 303.314270,181.554367 
	C302.764160,181.470078 301.345490,181.252716 299.583801,181.170044 
z"/>
<path fill="#0F298F" opacity="1.000000" stroke="none" 
	d="
M541.000000,173.910583 
	C541.000000,168.485489 541.000000,163.545288 541.000000,157.911346 
	C545.373108,158.111038 549.122620,158.282257 552.872131,158.453476 
	C552.878296,159.131378 552.884399,159.809265 552.890564,160.487167 
	C550.117798,160.775009 547.344971,161.062851 544.300232,161.378922 
	C544.300232,163.809067 544.300232,166.048615 544.300232,168.640503 
	C547.130127,168.877365 549.840820,169.104263 552.551575,169.331161 
	C552.589600,169.735977 552.627625,170.140778 552.665649,170.545593 
	C549.956299,170.805679 547.246948,171.065765 544.285095,171.350098 
	C544.082764,174.946747 543.892883,178.321304 543.703064,181.695847 
	C543.062866,181.783997 542.422668,181.872147 541.782471,181.960297 
	C541.521667,179.438690 541.260803,176.917068 541.000000,173.910583 
z"/>
<path fill="#0F298F" opacity="1.000000" stroke="none" 
	d="
M439.900482,163.713776 
	C441.496674,161.151520 442.762054,158.671219 444.694733,156.932785 
	C445.421783,156.278793 447.696320,157.345215 449.359100,158.543640 
	C444.171051,157.853455 443.913208,161.250397 443.329071,164.377579 
	C444.641663,164.854111 445.961182,165.333160 448.656647,166.311722 
	C446.034058,166.868042 444.734222,167.143768 442.575256,167.601746 
	C442.575256,172.296356 442.575256,177.067795 442.575256,181.839233 
	C441.977386,181.887039 441.379486,181.934860 440.781616,181.982666 
	C440.522156,180.768265 440.188263,179.564255 440.016815,178.337555 
	C439.441498,174.221756 438.859375,170.104141 438.459106,165.969879 
	C438.403290,165.393295 439.351562,164.719528 439.900482,163.713776 
z"/>
<path fill="#132C91" opacity="1.000000" stroke="none" 
	d="
M314.136261,165.011566 
	C315.878723,165.009155 317.203552,165.009155 318.528381,165.009155 
	C318.666321,165.380112 318.804260,165.751068 318.942200,166.122025 
	C318.024689,166.466614 317.093140,166.778381 316.192932,167.163467 
	C314.833008,167.745163 313.495026,168.377991 312.147705,168.989075 
	C313.061066,169.983398 313.802185,171.275604 314.917542,171.920639 
	C319.832458,174.762955 321.065948,179.276718 317.050415,181.117630 
	C314.656158,182.215271 311.529388,181.715012 308.731903,181.933105 
	C308.638580,181.308899 308.545227,180.684708 308.451904,180.060501 
	C309.596710,179.794678 310.735870,179.500656 311.887787,179.270386 
	C313.223663,179.003387 314.570709,178.792343 316.460571,177.276016 
	C315.083374,176.169540 313.535095,175.215790 312.374603,173.915848 
	C311.077942,172.463394 309.012451,170.432632 309.318634,169.133759 
	C309.702545,167.505264 312.157532,166.364990 314.136261,165.011566 
z"/>
<path fill="#0F298F" opacity="1.000000" stroke="none" 
	d="
M584.707397,181.107834 
	C579.741272,182.803558 575.321777,182.474396 572.461487,177.727417 
	C570.710449,174.821365 572.282715,168.815628 575.122925,166.378143 
	C578.009033,163.901245 583.488403,164.458267 584.559204,167.337433 
	C578.657715,166.781967 575.850952,168.242157 575.081848,172.267975 
	C574.330872,176.199036 577.008606,179.315521 580.996643,179.464859 
	C582.289551,179.513275 583.555237,180.287354 584.707397,181.107834 
z"/>
<path fill="#112B90" opacity="1.000000" stroke="none" 
	d="
M377.921692,176.337311 
	C376.977386,178.440720 376.289612,181.251022 374.938751,181.617599 
	C372.536041,182.269608 369.731750,181.441803 367.095428,181.232971 
	C367.130981,180.726379 367.166504,180.219803 367.202026,179.713211 
	C367.604065,179.514114 367.988708,179.198685 368.411072,179.135559 
	C370.513885,178.821304 372.626617,178.573486 374.735870,178.302277 
	C373.324493,176.790787 371.699097,175.422714 370.562775,173.726929 
	C369.458069,172.078400 368.375366,170.130707 368.230469,168.241699 
	C368.156433,167.276474 370.013550,165.537628 371.255432,165.246170 
	C373.040161,164.827316 375.059967,165.410110 376.979431,165.565353 
	C376.918549,166.076324 376.857666,166.587296 376.796753,167.098267 
	C375.591370,167.098267 374.318878,166.861801 373.203278,167.178284 
	C372.409576,167.403473 371.421631,168.293625 371.275757,169.035553 
	C371.153931,169.655014 372.017151,170.605606 372.639496,171.207596 
	C374.330719,172.843460 376.125641,174.372131 377.921692,176.337311 
z"/>
<path fill="#0F298F" opacity="1.000000" stroke="none" 
	d="
M589.631470,164.325378 
	C590.179016,162.642914 590.524963,161.296219 591.056519,159.226944 
	C593.053894,162.219711 594.396118,164.230865 595.758606,166.272354 
	C591.355408,168.968399 591.496216,176.250656 596.827209,180.583282 
	C592.517273,183.226273 590.227417,182.333893 590.021729,177.872238 
	C589.922241,175.715164 590.230652,173.517609 589.932312,171.397781 
	C589.658569,169.452484 588.817688,167.587021 588.091248,165.250610 
	C588.003174,165.289368 588.716553,164.975250 589.631470,164.325378 
z"/>
<path fill="#102A8F" opacity="1.000000" stroke="none" 
	d="
M388.471497,167.040421 
	C387.086853,167.569153 386.079559,168.119614 385.072266,168.670074 
	C385.667206,169.731537 386.192719,170.842911 386.898682,171.824524 
	C387.114990,172.125290 388.070312,171.906372 388.270630,172.204941 
	C389.566193,174.135727 391.165771,176.027390 391.764343,178.182251 
	C392.014130,179.081406 390.185455,181.484634 389.072418,181.648804 
	C386.504089,182.027649 383.795502,181.455414 381.143799,181.269012 
	C381.183807,180.790649 381.223816,180.312286 381.263824,179.833939 
	C381.501038,179.632309 381.715973,179.293182 381.978912,179.250687 
	C384.234192,178.886047 386.498047,178.574997 388.759338,178.247925 
	C387.188171,176.652588 385.189606,175.289688 384.161499,173.399048 
	C383.049286,171.353867 382.842987,168.816055 382.241547,166.493118 
	C384.927429,166.100235 387.612305,165.698959 390.307526,165.386536 
	C390.352325,165.381348 390.522430,166.457001 390.634033,167.028290 
	C390.038971,167.039581 389.443939,167.050858 388.471497,167.040421 
z"/>
<path fill="#0F298F" opacity="1.000000" stroke="none" 
	d="
M451.000061,173.914795 
	C451.897064,169.721298 448.462372,165.929031 451.106567,162.205658 
	C451.622101,161.479691 452.219940,160.812180 452.457458,160.517578 
	C454.310760,162.671692 455.984558,164.617126 457.779510,166.703430 
	C457.034851,166.864548 455.739410,167.144836 454.171448,167.484085 
	C454.631714,172.084610 451.344879,177.524719 457.981323,181.332047 
	C456.592682,181.493744 454.248932,182.200104 453.977753,181.724548 
	C452.677765,179.444931 451.938538,176.845535 451.000061,173.914795 
z"/>
<path fill="#102A90" opacity="1.000000" stroke="none" 
	d="
M619.002563,169.363892 
	C619.083069,167.783279 619.163330,166.651138 619.230713,165.699829 
	C622.236877,165.699829 625.023071,165.699829 627.809265,165.699829 
	C620.906433,168.724686 623.363708,174.668015 622.888489,179.629044 
	C622.811401,180.433212 621.682190,181.136566 621.039307,181.886505 
	C620.371277,181.162415 619.178589,180.474152 619.126221,179.708054 
	C618.901978,176.421967 619.013367,173.112991 619.002563,169.363892 
z"/>
<path fill="#162F92" opacity="1.000000" stroke="none" 
	d="
M507.986450,173.373764 
	C507.872559,176.509705 507.760345,179.202637 507.648102,181.895554 
	C506.926270,181.892303 506.204437,181.889053 505.482635,181.885788 
	C505.140198,176.432327 504.797791,170.978867 504.454376,165.509430 
	C507.099609,165.509430 509.946198,165.509430 512.903931,165.509430 
	C511.073151,168.273285 509.530609,170.602020 507.986450,173.373764 
z"/>
<path fill="#0F298F" opacity="1.000000" stroke="none" 
	d="
M326.542725,181.296448 
	C325.197418,180.933533 323.220703,180.270126 323.169495,179.481644 
	C322.870575,174.878922 323.022949,170.246918 323.022949,165.602051 
	C327.587097,165.919159 327.714111,166.498398 326.542725,181.296448 
z"/>
<path fill="#BDDC7D" opacity="1.000000" stroke="none" 
	d="
M682.150391,78.736191 
	C682.464722,80.905434 682.964294,83.516907 682.975281,86.130417 
	C683.044983,102.728363 683.006775,119.326767 682.998535,136.382721 
	C682.660034,135.712555 682.038879,134.585052 682.037476,133.456757 
	C682.014893,115.364365 682.071350,97.271851 682.150391,78.736191 
z"/>
<path fill="#DFEEC0" opacity="1.000000" stroke="none" 
	d="
M434.709869,40.571571 
	C417.917999,40.990520 400.996796,40.993351 383.618164,40.991890 
	C383.778931,40.659504 384.397064,40.045147 385.015259,40.045078 
	C401.537018,40.043320 418.058777,40.104740 434.709869,40.571571 
z"/>
<path fill="#9FCD42" opacity="1.000000" stroke="none" 
	d="
M395.417725,136.672699 
	C395.172882,122.743614 395.323639,108.650864 395.777832,94.264450 
	C395.991974,108.150192 395.902679,122.329605 395.417725,136.672699 
z"/>
<path fill="#9FCD42" opacity="1.000000" stroke="none" 
	d="
M569.950317,78.512619 
	C570.264648,78.758156 570.921570,79.467606 570.919373,80.175049 
	C570.882568,92.217201 570.763977,104.259117 570.412109,116.625671 
	C570.102661,104.292030 570.044495,91.633820 569.950317,78.512619 
z"/>
<path fill="#9FCD42" opacity="1.000000" stroke="none" 
	d="
M396.442657,94.047775 
	C397.682709,93.721352 399.391052,93.065392 401.105560,93.048775 
	C411.043213,92.952438 420.982269,93.006721 431.378662,93.016205 
	C430.352631,93.348228 428.871124,93.943726 427.384644,93.956528 
	C417.228271,94.043968 407.070862,94.009026 396.442657,94.047775 
z"/>
<path fill="#9FCD42" opacity="1.000000" stroke="none" 
	d="
M396.035278,82.471947 
	C395.707245,81.560066 395.042816,80.184502 395.050812,78.812851 
	C395.103607,69.747803 395.300964,60.683590 395.756683,51.341606 
	C396.044708,61.379433 396.027313,71.694756 396.035278,82.471947 
z"/>
<path fill="#000000" opacity="1.000000" stroke="none" 
	d="
M319.003021,91.139267 
	C327.174652,91.081169 335.319397,90.199471 343.214966,93.860481 
	C350.838928,97.395523 354.309418,103.804420 352.985016,114.121338 
	C352.255615,119.802872 345.305847,126.390938 338.980743,126.938301 
	C332.604523,127.490097 326.192078,127.622993 319.378845,127.377869 
	C318.975800,114.923958 318.989410,103.031616 319.003021,91.139267 
z"/>
<path fill="#000000" opacity="1.000000" stroke="none" 
	d="
M318.931122,50.226269 
	C326.130341,50.571411 333.419952,50.342369 340.498169,51.456421 
	C345.512482,52.245640 349.263214,55.896221 349.953766,61.411213 
	C350.824799,68.367668 349.514069,74.242889 342.630157,78.212090 
	C336.095978,81.979637 329.226196,80.671738 322.418762,80.993462 
	C321.591980,81.032539 320.760986,80.981926 319.466980,80.460175 
	C318.978394,70.040398 318.954742,60.133335 318.931122,50.226269 
z"/>
<path fill="#DEEDBE" opacity="1.000000" stroke="none" 
	d="
M318.619263,91.321747 
	C318.989410,103.031616 318.975800,114.923958 318.917786,127.255096 
	C318.580811,125.788658 318.038788,123.883644 318.037201,121.978172 
	C318.028748,111.820259 318.155518,101.662224 318.619263,91.321747 
z"/>
<path fill="#DEEEBE" opacity="1.000000" stroke="none" 
	d="
M318.609314,50.473343 
	C318.954742,60.133335 318.978394,70.040398 319.002075,80.403687 
	C318.667450,79.874146 318.041351,78.887772 318.043457,77.902740 
	C318.062836,68.841835 318.191040,59.781162 318.609314,50.473343 
z"/>
<path fill="#000000" opacity="1.000000" stroke="none" 
	d="
M54.697800,125.746254 
	C51.067223,129.713928 47.707973,133.445786 43.709145,137.888168 
	C40.037773,129.854202 35.642082,123.341530 34.841503,114.957886 
	C34.112011,107.318642 34.606686,100.325531 39.032997,93.889641 
	C43.897148,86.817123 54.935013,82.856033 62.769718,86.194923 
	C67.383820,88.161293 71.611534,91.238289 75.640976,94.304680 
	C78.585220,96.545219 78.554192,99.663239 75.966026,102.501740 
	C68.970222,110.174202 61.968494,117.841255 54.697800,125.746254 
z"/>
<path fill="#000000" opacity="1.000000" stroke="none" 
	d="
M248.010086,91.838676 
	C248.499069,74.838921 265.637878,68.842392 277.613953,75.218056 
	C281.017670,77.030083 282.746674,82.197670 284.915253,86.013092 
	C285.740784,87.465569 285.643555,89.442520 285.456085,91.590210 
	C272.633545,91.946220 260.321808,91.892448 248.010086,91.838676 
z"/>
<path fill="#DFEEC0" opacity="1.000000" stroke="none" 
	d="
M247.752701,92.094772 
	C260.321808,91.892448 272.633545,91.946220 285.401276,92.000023 
	C285.034943,92.331581 284.214203,92.947235 283.390076,92.951790 
	C272.004852,93.014664 260.619141,93.002975 249.233673,92.965706 
	C248.653549,92.963814 248.074738,92.564919 247.752701,92.094772 
z"/>
<path fill="#000000" opacity="1.000000" stroke="none" 
	d="
M650.671692,124.815277 
	C636.477844,134.994049 622.934998,125.629280 619.168823,112.408524 
	C616.847534,104.260010 617.641724,96.014267 621.350708,88.018173 
	C624.631897,80.944466 632.301575,75.301292 640.330994,75.912300 
	C647.708862,76.473732 654.838379,81.350555 657.526672,89.140770 
	C661.077454,99.430420 661.387329,109.636909 655.275696,119.237518 
	C654.055420,121.154411 652.395752,122.791618 650.671692,124.815277 
z"/>
<path fill="#000000" opacity="1.000000" stroke="none" 
	d="
M471.631165,125.857407 
	C466.899414,127.071373 462.452209,128.781097 457.998077,128.799301 
	C453.131500,128.819183 450.171082,125.066742 449.096344,120.459763 
	C447.975708,115.656029 450.629669,109.140114 454.115723,106.978477 
	C461.334015,102.502556 469.233887,101.560585 477.853638,102.180031 
	C477.819702,110.728508 480.110809,119.434258 471.631165,125.857407 
z"/>
<path fill="#000000" opacity="1.000000" stroke="none" 
	d="
M773.367554,160.052078 
	C780.683472,163.280243 784.858887,169.648499 783.783508,175.321732 
	C782.476135,182.219070 776.752991,187.293121 769.550476,187.940704 
	C765.552734,188.300140 759.161804,184.174240 756.917419,179.784943 
	C754.930664,175.899460 755.983459,167.967957 758.668457,164.800415 
	C762.503784,160.275742 767.477722,159.490677 773.367554,160.052078 
M768.377258,163.002548 
	C766.302246,163.080536 763.879211,162.422424 763.976868,165.972260 
	C764.118408,171.117508 763.949951,176.271194 764.084045,181.416840 
	C764.107544,182.318726 764.967773,183.198792 765.441589,184.088943 
	C765.855713,183.957520 766.269836,183.826111 766.683899,183.694687 
	C766.788696,182.262070 766.879822,180.828278 767.002075,179.397171 
	C767.120911,178.005661 767.271790,176.616913 767.427734,175.031982 
	C771.051025,175.487671 773.108398,176.568924 773.162842,180.306168 
	C773.181702,181.608032 774.694092,182.888168 775.524292,184.178238 
	C775.893799,183.894424 776.263306,183.610626 776.632812,183.326828 
	C776.341125,181.408798 776.051147,179.490524 775.757141,177.572861 
	C775.522095,176.040100 774.589417,174.156326 775.159302,173.034210 
	C778.294739,166.861130 776.512329,163.634460 768.377258,163.002548 
z"/>
<path fill="#000000" opacity="1.000000" stroke="none" 
	d="
M280.457947,178.697708 
	C278.669525,179.115143 277.238983,179.366440 275.403320,179.688889 
	C275.403320,176.985718 275.403320,174.340714 275.403320,170.349823 
	C278.048187,171.362381 280.584198,171.800674 282.239227,173.247040 
	C282.843018,173.774719 281.351440,176.700058 280.457947,178.697708 
z"/>
<path fill="#000000" opacity="1.000000" stroke="none" 
	d="
M275.134857,166.642670 
	C275.670898,164.158035 273.174805,160.361084 277.875610,160.592270 
	C279.237885,160.659271 280.894562,161.864090 281.714996,163.037582 
	C282.175079,163.695679 281.496552,166.154861 280.811737,166.410263 
	C279.104614,167.046951 277.100403,166.887009 275.134857,166.642670 
z"/>
<path fill="#000000" opacity="1.000000" stroke="none" 
	d="
M690.363892,168.747345 
	C691.250977,174.240540 687.460571,171.014618 684.666199,172.783340 
	C685.985168,168.829987 686.861572,166.203278 688.152832,162.333084 
	C689.109070,165.200333 689.643921,166.803909 690.363892,168.747345 
z"/>
<path fill="#000000" opacity="1.000000" stroke="none" 
	d="
M611.999146,173.830872 
	C611.834473,177.673279 610.390747,180.328629 606.645508,179.692184 
	C602.068481,178.914413 602.567688,174.853455 603.182800,171.756592 
	C603.531311,170.002060 605.579773,167.400299 607.035461,167.280441 
	C610.870850,166.964615 612.533691,169.572281 611.999146,173.830872 
z"/>
<path fill="#000000" opacity="1.000000" stroke="none" 
	d="
M428.766754,167.094360 
	C430.240143,168.706772 431.553772,170.157104 432.365601,171.848282 
	C433.817322,174.872360 432.742279,177.623428 429.888275,178.831436 
	C428.465271,179.433746 425.025848,178.712830 424.698090,177.800369 
	C423.804749,175.313354 423.625122,172.321060 424.110687,169.704895 
	C424.317413,168.591064 426.885773,167.915527 428.766754,167.094360 
z"/>
<path fill="#000000" opacity="1.000000" stroke="none" 
	d="
M524.167725,167.742065 
	C525.012878,169.045166 525.560669,170.091293 526.411560,171.716248 
	C523.205139,171.716248 520.840332,171.716248 518.183960,171.716248 
	C518.406250,167.699768 520.238098,166.392258 524.167725,167.742065 
z"/>
<path fill="#000000" opacity="1.000000" stroke="none" 
	d="
M492.859589,179.879517 
	C491.700714,178.568481 490.056213,176.239487 490.289246,176.033417 
	C491.907837,174.601913 493.916382,173.611328 496.295746,172.181274 
	C497.547546,176.628754 496.093964,178.574173 492.859589,179.879517 
z"/>
<path fill="#000000" opacity="1.000000" stroke="none" 
	d="
M559.616394,179.196869 
	C557.273315,175.022491 558.338501,173.742950 564.098267,173.233231 
	C565.623474,178.108505 565.090332,178.898026 559.616394,179.196869 
z"/>
<path fill="#000000" opacity="1.000000" stroke="none" 
	d="
M354.895508,167.722931 
	C358.893188,166.234894 360.757416,167.449448 360.793915,171.731903 
	C358.266602,171.731903 356.012878,171.731903 352.832764,171.731903 
	C353.542816,170.223663 354.069550,169.104813 354.895508,167.722931 
z"/>
<path fill="#000000" opacity="1.000000" stroke="none" 
	d="
M251.070618,167.731186 
	C251.858292,169.132950 252.363449,170.261978 253.013779,171.715454 
	C249.823730,171.715454 247.133209,171.715454 244.280670,171.715454 
	C244.839035,167.354568 247.078491,166.231918 251.070618,167.731186 
z"/>
<path fill="#102A8F" opacity="1.000000" stroke="none" 
	d="
M768.818970,163.002609 
	C776.512329,163.634460 778.294739,166.861130 775.159302,173.034210 
	C774.589417,174.156326 775.522095,176.040100 775.757141,177.572861 
	C776.051147,179.490524 776.341125,181.408798 776.632812,183.326828 
	C776.263306,183.610626 775.893799,183.894424 775.524292,184.178238 
	C774.694092,182.888168 773.181702,181.608032 773.162842,180.306168 
	C773.108398,176.568924 771.051025,175.487671 767.427734,175.031982 
	C767.271790,176.616913 767.120911,178.005661 767.002075,179.397171 
	C766.879822,180.828278 766.788696,182.262070 766.683899,183.694687 
	C766.269836,183.826111 765.855713,183.957520 765.441589,184.088943 
	C764.967773,183.198792 764.107544,182.318726 764.084045,181.416840 
	C763.949951,176.271194 764.118408,171.117508 763.976868,165.972260 
	C763.879211,162.422424 766.302246,163.080536 768.818970,163.002609 
M767.671021,172.657196 
	C771.176331,173.842209 773.657166,172.164352 773.572205,168.953613 
	C773.485962,165.695480 770.666626,164.640366 767.192383,165.425644 
	C767.192383,167.717194 767.192383,169.840652 767.671021,172.657196 
z"/>
<path fill="#000000" opacity="1.000000" stroke="none" 
	d="
M767.431702,172.310638 
	C767.192383,169.840652 767.192383,167.717194 767.192383,165.425644 
	C770.666626,164.640366 773.485962,165.695480 773.572205,168.953613 
	C773.657166,172.164352 771.176331,173.842209 767.431702,172.310638 
z"/>
</svg>