<svg xmlns="http://www.w3.org/2000/svg" xmlns:xlink="http://www.w3.org/1999/xlink" width="120.01" height="150" viewBox="0 0 120.01 150">
  <defs>
    <clipPath id="clip-path">
      <rect id="Rectángulo_7110" data-name="Rectángulo 7110" width="120.01" height="150" fill="none"/>
    </clipPath>
  </defs>
  <g id="icono-trans-pagar-factura" transform="translate(0 0)">
    <g id="Grupo_49" data-name="Grupo 49" transform="translate(0 0)" clip-path="url(#clip-path)">
      <path id="Trazado_903" data-name="Trazado 903" d="M85.371,54.036h-69.5a3.518,3.518,0,0,1,0-7.037h69.5a3.518,3.518,0,1,1,0,7.037" transform="translate(9.381 35.679)" fill="#007934"/>
      <path id="Trazado_904" data-name="Trazado 904" d="M84.8,62.555H16.1a3.518,3.518,0,1,1,0-7.037H84.8a3.518,3.518,0,0,1,0,7.037" transform="translate(9.552 42.147)" fill="#007934"/>
      <path id="Trazado_905" data-name="Trazado 905" d="M80.739,40.925H61.571c-7.983,0-14.476-7.109-14.476-15.846V3.692a3.518,3.518,0,0,1,6.141-2.343L83.362,35.061a3.519,3.519,0,0,1-2.623,5.863M54.132,12.91V25.078c0,4.857,3.337,8.81,7.439,8.81h11.3Z" transform="translate(35.753 0.132)" fill="#007934"/>
      <path id="Trazado_906" data-name="Trazado 906" d="M105.178,150H14.756A14.773,14.773,0,0,1,0,135.244V14.754A14.773,14.773,0,0,1,14.756,0H85.433a3.518,3.518,0,0,1,0,7.037H14.756a7.728,7.728,0,0,0-7.719,7.717v120.49a7.728,7.728,0,0,0,7.719,7.719h90.422a7.728,7.728,0,0,0,7.719-7.719v-97.7a3.518,3.518,0,1,1,7.037,0v97.7A14.773,14.773,0,0,1,105.178,150" transform="translate(0 0)" fill="#007934"/>
      <path id="Trazado_907" data-name="Trazado 907" d="M44.009,47.384H35.4a8.631,8.631,0,0,1-8.6-8.666,2.149,2.149,0,1,1,4.3,0v0a4.319,4.319,0,0,0,4.3,4.335h8.6a4.335,4.335,0,0,0,0-8.667H35.4a8.666,8.666,0,1,1,0-17.331h8.6a8.634,8.634,0,0,1,8.6,8.666,2.15,2.15,0,1,1-4.3,0v0a4.314,4.314,0,0,0-4.3-4.333H35.4a4.334,4.334,0,0,0,0,8.666h8.6a8.666,8.666,0,0,1,0,17.331" transform="translate(20.299 12.946)" fill="#007934"/>
      <path id="Trazado_908" data-name="Trazado 908" d="M44.39,48.641H35.784a9.524,9.524,0,0,1-9.477-9.549,3.029,3.029,0,0,1,6.059,0,3.444,3.444,0,0,0,3.422,3.457h8.6a3.454,3.454,0,0,0-.019-6.906H35.784a9.545,9.545,0,1,1,0-19.09H44.39A9.521,9.521,0,0,1,53.865,26.1a3.028,3.028,0,0,1-6.057,0,3.442,3.442,0,0,0-3.422-3.457h-8.6a3.454,3.454,0,0,0,.019,6.906H44.39a9.545,9.545,0,0,1,0,19.09M29.337,37.826a1.273,1.273,0,0,0-1.27,1.27,7.762,7.762,0,0,0,7.721,7.786h8.6a7.786,7.786,0,0,0,0-15.572H35.784a5.213,5.213,0,0,1-.019-10.425H44.39A5.2,5.2,0,0,1,49.567,26.1a1.269,1.269,0,0,0,2.538,0,7.76,7.76,0,0,0-7.719-7.786h-8.6a7.786,7.786,0,1,0,0,15.572H44.39a5.213,5.213,0,0,1,.018,10.425H35.784a5.2,5.2,0,0,1-5.177-5.218,1.272,1.272,0,0,0-1.27-1.267" transform="translate(19.92 12.567)" fill="#007934"/>
      <path id="Trazado_909" data-name="Trazado 909" d="M35.038,22.014a2.157,2.157,0,0,1-2.15-2.166V15.523a2.15,2.15,0,0,1,4.3,0v4.336a2.158,2.158,0,0,1-2.15,2.157" transform="translate(24.967 10.152)" fill="#007934"/>
      <path id="Trazado_910" data-name="Trazado 910" d="M35.416,23.273h0a3.043,3.043,0,0,1-3.026-3.047V15.9a3.033,3.033,0,0,1,3.029-3.029h0A3.027,3.027,0,0,1,38.446,15.9v4.336a3.044,3.044,0,0,1-3.026,3.036Zm0-8.641h0a1.273,1.273,0,0,0-1.27,1.27v4.324a1.27,1.27,0,1,0,2.54.011V15.9a1.267,1.267,0,0,0-1.268-1.27" transform="translate(24.587 9.772)" fill="#007934"/>
      <path id="Trazado_911" data-name="Trazado 911" d="M35.038,42.654a2.157,2.157,0,0,1-2.15-2.166V34a2.15,2.15,0,0,1,4.3,0v6.5a2.157,2.157,0,0,1-2.15,2.158" transform="translate(24.967 24.176)" fill="#007934"/>
      <path id="Trazado_912" data-name="Trazado 912" d="M35.416,43.914h0a3.043,3.043,0,0,1-3.026-3.047V34.376a3.033,3.033,0,0,1,3.029-3.029h0a3.027,3.027,0,0,1,3.028,3.028v6.5a3.043,3.043,0,0,1-3.026,3.038Zm0-10.808h0a1.273,1.273,0,0,0-1.27,1.27v6.491a1.27,1.27,0,1,0,2.54.009v-6.5a1.267,1.267,0,0,0-1.268-1.27" transform="translate(24.587 23.797)" fill="#007934"/>
      <path id="Trazado_913" data-name="Trazado 913" d="M84.8,71.182H16.1a3.518,3.518,0,1,1,0-7.037H84.8a3.518,3.518,0,0,1,0,7.037" transform="translate(9.552 48.696)" fill="#007934"/>
    </g>
  </g>
</svg>
